<svg width="288" height="263" viewBox="0 0 288 263" fill="none" xmlns="http://www.w3.org/2000/svg">
<g clip-path="url(#clip0_368_447)">
<path opacity="0.27" d="M1.86743 208.122C1.86743 237.546 66.3058 264.482 145.348 262.94C235.18 261.186 288.033 235.356 288.033 205.931C288.033 176.507 224.153 157.698 145.124 157.698C66.0954 157.698 1.86743 178.691 1.86743 208.122Z" fill="black"/>
<path d="M0 204.991C0 234.416 64.4384 261.352 143.481 259.81C233.313 258.056 286.165 232.225 286.165 202.801C286.165 173.376 222.247 154.567 143.224 154.567C64.2016 154.567 0 175.567 0 204.991Z" fill="#B22F5D"/>
<path d="M0.125 201.702C0.125 231.133 61.1508 254.138 140.167 254.138C219.183 254.138 286.323 231.166 286.323 201.735C286.323 172.304 222.253 148.459 143.224 148.459C64.1951 148.459 0.125 172.278 0.125 201.702Z" fill="url(#paint0_linear_368_447)"/>
<path d="M4.97754 201.676C4.97754 228.903 63.7808 250.167 139.91 250.167C216.039 250.167 280.767 228.903 280.767 201.676C280.767 174.449 219.038 152.377 142.889 152.377C66.7397 152.377 4.97754 174.449 4.97754 201.676Z" fill="#B22F5D"/>
<path d="M10.3232 202.914C10.3232 228.625 66.9961 248.705 140.41 248.705C213.824 248.705 276.164 228.625 276.164 202.914C276.164 177.202 216.651 156.361 143.231 156.361C69.8104 156.361 10.3232 177.202 10.3232 202.914Z" fill="url(#paint1_linear_368_447)"/>
<path d="M43.1277 207.698L49.1376 222.305L85.8411 233.576L126.273 237.54L155.303 235.66L174.168 230.445L196.767 221.676L43.5419 192.463L43.1277 207.698Z" fill="#914004"/>
<path d="M25.0916 207.698C25.0916 207.698 24.2565 207.281 31.7261 205.607C39.1957 203.933 30.8911 200.187 32.9689 192.668C35.0467 185.15 50.8012 182.662 61.5782 184.323C72.3552 185.984 63.2417 204.773 63.2417 204.773L49.5519 214.376L25.0916 207.698Z" fill="#914004"/>
<path d="M44.9951 190.167C44.9951 190.167 43.3316 195.177 45.4094 205.19C47.4872 215.204 60.7496 223.556 71.9474 225.23C83.1453 226.905 113.004 231.908 128.758 231.908C144.513 231.908 166.08 229.817 177.692 227.315C189.304 224.813 220.82 216.461 227.869 215.21C234.917 213.959 248.193 206.448 251.093 203.959C253.992 201.471 254.827 191.021 252.335 188.519C249.843 186.017 229.841 190.081 229.841 190.081L44.9951 190.167Z" fill="#FFEDC4"/>
<path d="M69.771 178.373C69.771 178.373 54.4308 178.79 46.9612 186.315C39.4916 193.84 47.7897 210.73 70.6324 216.573C93.4751 222.417 148.386 224.085 167.461 220.955C186.536 217.824 219.505 209.042 227.592 206.765C235.68 204.489 258.497 193.41 251.231 183.807C243.965 174.204 69.771 178.373 69.771 178.373Z" fill="url(#paint2_linear_368_447)"/>
<path d="M61.8937 177.367C61.8937 177.367 60.96 179.869 66.2466 184.568C71.5331 189.267 77.4247 190.2 82.731 190.828C88.0373 191.457 96.4142 199.591 111.34 200.842C126.266 202.093 144 204.283 174.464 205.852C204.927 207.42 230.137 193.297 237.304 192.046C244.471 190.795 255.058 184.846 255.965 180.133C256.872 175.421 255.34 170.12 255.34 170.12L61.8937 177.367Z" fill="#FFEDC4"/>
<path d="M131.974 194.442C131.974 194.442 148.149 195.488 163.286 196.951C178.422 198.413 201.422 200.081 229.841 190.061C258.26 180.041 262.599 166.481 245.181 162.099C227.763 157.718 109.374 190.895 109.374 190.895C109.374 190.895 116.219 194.442 131.974 194.442Z" fill="#E2952C"/>
<path opacity="0.18" d="M58.1589 139.869C55.7033 142.512 53.1089 145.022 50.3868 147.387C46.0274 151.139 54.1151 151.556 56.3047 160.008C58.4942 168.459 56.8373 171.921 62.0581 177.017C69.9485 184.74 81.1266 185.839 92.5414 190.008C103.417 193.979 120.085 198.221 135.281 197.367C159.432 196.011 173.74 198.83 183.071 197.262C192.401 195.693 201.62 190.643 210.233 187.817C222.674 183.747 228.178 179.062 235.739 173.992C253.493 162.079 246.917 156.46 246.917 153.019C246.917 149.578 241.322 152.357 232.616 147.063C223.91 141.768 58.1589 139.869 58.1589 139.869Z" fill="black"/>
<path d="M58.159 138.83C55.7023 141.47 53.1079 143.978 50.3869 146.341C46.0275 150.1 42.6083 152.913 44.7847 161.365C46.9612 169.816 54.4308 172.615 60.0264 177.334C65.622 182.053 83.9738 193.926 95.4806 195.203C106.987 196.481 117.252 198.016 132.493 198.334C147.735 198.651 171.058 196.454 180.388 194.886C189.718 193.317 203.5 188.003 212.114 185.183C224.555 181.113 228.191 178.049 235.785 172.973C253.539 161.06 246.963 155.448 246.963 152C246.963 148.552 241.368 151.378 232.662 146.043C223.956 140.709 58.159 138.83 58.159 138.83Z" fill="#FFEDC4"/>
<path d="M60.0262 137.473C60.0262 137.473 46.7571 142.483 44.7122 152.291C42.6673 162.099 57.7774 172.324 67.9363 174.826C78.0952 177.327 87.8399 186.738 104.429 189.856C121.019 192.973 144.033 191.729 164.765 190.689C185.497 189.65 208.307 182.748 221.162 176.076C234.016 169.405 248.535 166.48 247.496 154.375C246.457 142.271 232.984 142.059 232.984 142.059L60.0262 137.473Z" fill="url(#paint3_linear_368_447)"/>
<path opacity="0.18" d="M52.6685 141.543C52.6685 141.543 54.115 151.556 72.572 156.983C91.029 162.41 109.683 163.35 118.185 162.94C126.687 162.529 140.265 163.773 153.33 163.562C166.396 163.35 192.828 155.739 198.01 155.739C203.191 155.739 223.726 150.941 230.775 150.107C237.824 149.273 241.953 144.68 240.105 143.634C238.257 142.589 211.285 148.016 211.285 148.016L160.274 155.527L95.5857 154.905L63.8597 148.433L52.6816 141.55" fill="black"/>
<path d="M50.3869 131.781C50.3869 131.781 49.7622 140.239 55.7787 145.09C58.3036 147.129 73.6044 158.863 100.978 158.446C128.351 158.029 148.248 161.364 171.886 157.195C195.524 153.025 215.014 150.1 227.454 147.585C239.895 145.07 252.75 137.572 250.678 126.301C248.607 115.03 50.3869 131.781 50.3869 131.781Z" fill="#FFEDC4"/>
<path d="M61.6833 116.599C61.6833 116.599 50.5052 118.274 50.0713 129.121C49.6373 139.968 70.8099 149.571 94.0274 151.245C117.245 152.92 137.99 153.33 162.871 150.828C187.752 148.327 211.384 146.652 230.045 139.975C248.706 133.297 257.832 122.443 242.9 121.609C227.967 120.775 61.6833 116.599 61.6833 116.599Z" fill="#E2802C"/>
<path d="M52.5633 107.42C52.5633 107.42 49.7622 110.861 54.1151 120.252C58.468 129.644 74.6433 134.343 81.4883 136.533C88.3332 138.724 109.479 142.165 121.295 146.235C133.111 150.306 144.625 148.426 154.573 146.864C164.522 145.302 182.255 141.57 190.961 140.603C199.667 139.637 222.378 138.413 238.547 126.831C254.716 115.249 254.098 105.229 253.151 100.848C252.204 96.4667 52.5633 107.42 52.5633 107.42Z" fill="#FFEDC4"/>
<path d="M58.7835 91.1387C58.7835 91.1387 47.6055 102.39 54.2203 117.016C60.8351 131.642 82.0011 130.378 101.497 137.473C120.993 144.567 153.33 141.629 171.991 138.32C190.652 135.011 208.07 139.154 233.799 124.13C259.529 109.107 255.36 93.6867 245.826 93.6867C236.291 93.6867 58.7835 91.1387 58.7835 91.1387Z" fill="url(#paint4_radial_368_447)"/>
<path d="M49.7623 89.2662C49.7623 89.2662 47.5859 95.527 52.2478 99.9082C56.9097 104.289 77.1289 112.112 86.4396 117.115C95.7503 122.119 125.011 129.637 156.73 125.256C188.449 120.875 205.558 118.995 214.593 118.055C223.628 117.115 236.673 115.236 245.694 108.353C249.055 105.806 251.846 102.576 253.885 98.8729C255.924 95.1695 257.166 91.0755 257.53 86.8572C257.839 81.8472 227.98 84.0378 227.98 84.0378L49.7886 89.2596" fill="#FFEDC4"/>
<path d="M71.224 66.5127C71.224 66.5127 50.4854 68.604 49.6569 84.8782C48.8284 101.152 68.7254 102.827 82.8361 109.087C96.9468 115.348 134.255 121.192 154.159 119.524C174.062 117.857 194.801 112.43 215.967 111.583C237.133 110.735 244.583 98.644 251.217 94.4679C257.852 90.2918 260.752 84.8649 251.632 78.1872C242.512 71.5094 71.224 66.5127 71.224 66.5127Z" fill="url(#paint5_radial_368_447)"/>
<path d="M50.8011 198.545C50.8011 198.545 47.8948 191.451 56.6071 190.603C65.3194 189.756 71.1189 193.913 78.1677 194.78C85.2164 195.647 101.392 199.783 111.34 200.829C121.289 201.874 148.248 204.376 148.248 204.376C148.248 204.376 153.225 208.135 141.613 209.386C130.001 210.637 94.343 212.304 91.851 218.148C89.3589 223.992 93.9288 228.585 96.8285 229.836C99.7282 231.087 117.146 232.966 123.787 233.383C130.428 233.8 157.381 232.761 171.064 229.413C184.747 226.064 203.822 220.65 210.043 219.816C210.043 219.816 190.553 226.077 181.433 229.829C172.313 233.582 148.668 241.934 128.765 240.683C108.861 239.432 96 236.931 84.8219 236.077C73.6438 235.223 49.8871 229.942 37.131 224.826C24.6904 219.823 19.3052 213.979 22.6192 208.942C25.9331 203.906 37.5518 208.942 37.966 205.183C38.3803 201.424 44.2981 202.357 45.429 209.571C46.0471 213.542 52.8921 223.549 85.2362 228.559C85.2362 228.559 88.1425 226.891 87.314 222.298C86.4855 217.705 83.1649 219.379 71.1386 215.203C59.1123 211.027 53.2603 207.281 50.8011 198.545Z" fill="#914004"/>
<path d="M130.836 35.7314C138.967 35.7314 145.558 34.6113 145.558 33.2297C145.558 31.8481 138.967 30.728 130.836 30.728C122.705 30.728 116.114 31.8481 116.114 33.2297C116.114 34.6113 122.705 35.7314 130.836 35.7314Z" fill="#6C3200"/>
<path opacity="0.18" d="M95.1716 105.699C96.1053 105.957 119.428 115.037 148.353 112.218C177.278 109.399 192.211 101.265 198.431 100.636C204.651 100.007 230.459 91.245 237.304 89.6831C244.149 88.1212 253.48 82.1648 248.193 76.8438C242.906 71.5228 95.1716 105.699 95.1716 105.699Z" fill="black"/>
<path d="M51.1628 79.3519C51.1628 79.3519 51.6297 84.4082 53.4971 85.8179C55.3645 87.2276 53.4971 88.3262 56.4494 90.358C59.4017 92.3898 78.845 101.609 95.1716 105.699C111.498 109.789 130.159 112.43 153.64 108.201C177.12 103.972 186.299 99.4381 198.582 96.1489C210.865 92.8597 227.198 87.3864 236.219 85.1958C245.241 83.0052 246.477 80.3381 247.568 78.4651C248.66 76.5922 248.969 72.3565 247.259 71.4167C245.55 70.477 224.088 77.9952 224.088 77.9952L141.199 82.8463L51.1628 79.3519Z" fill="#FFEDC4"/>
<path d="M57.2055 61.7144C57.2055 61.7144 52.5436 63.905 51.2877 72.3564C50.0318 80.8078 51.5968 84.2691 59.9935 87.0686C68.3902 89.8681 83.9409 98.9813 104.778 102.41C125.615 105.838 143.967 103.66 172.583 97.7173C201.199 91.7741 222.963 82.0653 232.918 80.1857C242.873 78.3061 249.087 73.6072 246.911 70.4768C244.734 67.3464 228.25 67.3464 228.25 67.3464L57.2055 61.7144Z" fill="url(#paint6_radial_368_447)"/>
<path d="M64.537 68.5513C64.537 68.5513 49.9726 72.4626 51.2154 78.7565C52.4581 85.0504 69.8762 90.8612 73.1902 92.112C76.5041 93.3628 77.3392 99.6236 74.4395 99.6236C71.5398 99.6236 62.8274 95.4542 62.4132 99.2067C61.9989 102.959 76.7146 105.679 82.8362 109.134C88.9578 112.589 93.5145 119.677 88.537 119.26C83.5595 118.843 65.2603 116.751 67.3315 123.846C69.4028 130.941 79.4104 128.856 91.851 134.7C104.292 140.544 93.9288 142.642 86.4592 140.961C74.4921 138.314 66.5556 146.388 83.5595 149.306C100.563 152.225 103.89 153.853 102.22 158.837C100.55 163.82 83.9737 162.596 78.9962 164.68C74.0187 166.765 74.4395 174.277 86.4592 178.036C98.4789 181.795 103.049 176.368 110.926 179.704C118.803 183.039 129.587 183.88 133.322 178.036C137.056 172.192 122.952 165.931 117.146 163.013C111.34 160.094 103.049 158.003 108.441 154.243C113.832 150.484 122.124 154.243 121.71 149.65C121.295 145.057 108.441 145.481 105.12 142.139C101.799 138.797 103.049 134.627 114.247 135.461C125.444 136.295 127.562 130.425 120.519 127.069C113.477 123.714 100.978 124.197 98.0713 120.861C95.165 117.526 91.851 110.008 96.8285 110.008C101.806 110.008 109.013 116.924 111.656 112.979C113.714 109.915 100.563 107.188 95.1715 105.699C89.7798 104.21 80.7847 101.186 80.7847 101.186C80.7847 101.186 76.0965 98.7567 79.8247 92.0789C83.5529 85.4012 94.343 92.4959 106.784 87.9095C119.224 83.3231 107.178 74.4216 92.7124 73.1641C83.2273 72.2729 73.8137 70.7317 64.537 68.5513Z" fill="#914004"/>
<path opacity="0.18" d="M54.4308 63.7002L52.2478 68.0814C52.2478 68.0814 64.0834 77.4726 94.2379 77.1616C124.392 76.8505 132.493 78.7235 140.581 75.5931C148.669 72.4627 174.477 74.9313 180.079 74.9313C185.681 74.9313 214.271 73.0583 223.312 69.9279C232.353 66.7975 54.4308 63.7002 54.4308 63.7002Z" fill="black"/>
<path d="M43.2328 40.4302C43.236 41.6567 43.445 42.874 43.8509 44.0305C44.5084 45.4335 42.6082 47.6308 42.6082 51.2311C42.6082 54.8313 46.0273 59.8347 58.1588 65.9433C70.2903 72.0519 88.3265 73.2961 111.031 74.077C133.736 74.858 128.127 72.3563 159.242 71.2643C190.356 70.1723 182.097 74.8646 215.066 71.1055C248.035 67.3463 248.66 62.5018 249.436 61.2444C250.211 59.9869 251.178 55.1424 250.521 53.607C249.863 52.0716 237.613 49.8545 237.613 49.8545L43.2328 40.4302Z" fill="#FFEDC4"/>
<path d="M45.7183 45.6654C45.7183 45.6654 46.7572 44.4145 44.2651 42.3563C41.7731 40.298 43.8509 34.8446 51.3205 29.2126C58.7901 23.5805 89.4574 10.8471 142.133 13.1436C194.808 15.4401 231.912 33.3357 238.547 38.1339C245.181 42.9321 250.159 46.6912 249.955 51.9063C249.955 51.9063 252.44 55.6654 245.392 56.4993C238.343 57.3332 225.902 59.4179 214.29 61.0857C202.678 62.7535 170.124 64.3948 151.259 62.7601C132.394 61.1254 117.462 65.8905 91.5418 63.594C65.6218 61.2975 50.8536 58.1803 45.7183 51.9063C42.8185 48.359 45.7183 45.6654 45.7183 45.6654Z" fill="url(#paint7_linear_368_447)"/>
<path d="M126.247 26.7571C126.247 26.7571 96.079 26.4461 98.5644 32.3164C101.05 38.1867 110.696 33.8584 114.424 41.2708C118.152 48.6832 89.8587 45.9035 79.5749 45.5925C69.291 45.2814 62.2028 52.118 64.7672 58.6899C68.1929 67.4589 73.5058 66.036 69.8762 69.9408C69.5146 70.3312 72.776 70.7747 72.776 70.7747C72.776 70.7747 74.4855 69.7025 72.4669 64.4013C70.1129 58.2398 83.645 55.758 95.7896 57.6111C107.934 59.4642 145.243 59.7752 156.441 60.3907C167.638 61.0062 183.498 62.2438 186.917 58.2266C190.336 54.2093 178.521 57.0155 179.77 51.1451C181.019 45.2748 195.005 49.6031 211.798 47.4456C228.592 45.288 221.444 36.327 211.798 33.8584C202.152 31.3899 224.239 31.6943 234.812 36.6381C245.385 41.5819 238.856 32.9319 226.415 28.9146C213.975 24.8974 185.359 27.0682 166.698 28.2992C148.037 29.5301 142.757 27.0682 126.247 26.7571Z" fill="#914004"/>
<path opacity="0.18" d="M245.701 108.359C236.679 115.242 223.621 117.122 214.599 118.062C205.578 119.001 188.476 120.881 156.736 125.262C124.997 129.643 95.7763 122.132 86.4459 117.122C77.9769 112.575 60.5259 105.705 53.898 101.198L53.1681 101.265C53.1681 101.265 52.55 102.932 52.55 107.419C52.55 111.907 67.4761 113.786 76.2213 117.539C84.9665 121.291 105.764 127.976 121.315 129.643C136.866 131.311 159.57 130.06 172.945 127.87C186.319 125.679 210.575 121.298 217.111 121.913C223.647 122.529 253.183 118.604 253.183 100.841C253.181 100.637 253.153 100.435 253.098 100.239C251.146 103.378 248.639 106.131 245.701 108.359Z" fill="black"/>
<path opacity="0.18" d="M81.4881 136.533C74.6432 134.343 58.4744 129.644 54.1149 120.252C54.1149 120.252 51.6295 121.609 50.3867 125.679C50.3867 125.679 60.3352 134.448 70.5993 136.93C80.8634 139.412 89.5692 142.887 96.7232 140.689C96.8622 140.662 96.9934 140.604 97.1072 140.52C97.221 140.435 97.3144 140.326 97.3807 140.2C90.6213 138.777 84.5851 137.526 81.4881 136.533Z" fill="black"/>
<path d="M86.1371 45.3872C86.137 45.7926 86.0167 46.1888 85.7918 46.525C85.5668 46.8613 85.2474 47.1224 84.8742 47.275C84.5011 47.4276 84.0912 47.4648 83.697 47.3817C83.3028 47.2987 82.9421 47.0992 82.6611 46.8088C82.3801 46.5184 82.1915 46.1503 82.1194 45.7515C82.0473 45.3526 82.095 44.9412 82.2564 44.5698C82.4177 44.1984 82.6855 43.8838 83.0254 43.6663C83.3653 43.4488 83.7619 43.3383 84.1645 43.3488C84.693 43.361 85.1957 43.5813 85.5645 43.9624C85.9334 44.3436 86.1389 44.8552 86.1371 45.3872Z" fill="#D72F5D"/>
<path d="M101.083 52.5811C102.198 52.5811 103.101 51.6715 103.101 50.5494C103.101 49.4272 102.198 48.5176 101.083 48.5176C99.968 48.5176 99.0642 49.4272 99.0642 50.5494C99.0642 51.6715 99.968 52.5811 101.083 52.5811Z" fill="#F6605D"/>
<path d="M107.77 46.7906C107.771 47.194 107.654 47.5888 107.432 47.9248C107.21 48.2609 106.894 48.5232 106.524 48.6785C106.154 48.8338 105.747 48.8751 105.354 48.7972C104.96 48.7193 104.599 48.5257 104.315 48.2409C104.031 47.9561 103.838 47.5929 103.759 47.1973C103.68 46.8017 103.72 46.3915 103.873 46.0187C104.026 45.6458 104.286 45.3271 104.619 45.1028C104.952 44.8785 105.344 44.7588 105.745 44.7588C106.281 44.7588 106.795 44.9726 107.174 45.3535C107.554 45.7343 107.768 46.2511 107.77 46.7906Z" fill="#D72F5D"/>
<path d="M213.824 44.2887C214.938 44.2887 215.842 43.379 215.842 42.2569C215.842 41.1348 214.938 40.2251 213.824 40.2251C212.709 40.2251 211.805 41.1348 211.805 42.2569C211.805 43.379 212.709 44.2887 213.824 44.2887Z" fill="#D72F5D"/>
<path d="M227.507 31.6612C228.622 31.6612 229.526 30.7516 229.526 29.6294C229.526 28.5073 228.622 27.5977 227.507 27.5977C226.392 27.5977 225.488 28.5073 225.488 29.6294C225.488 30.7516 226.392 31.6612 227.507 31.6612Z" fill="#D72F5D"/>
<path d="M98.8997 86.3873C100.015 86.3873 100.918 85.4776 100.918 84.3555C100.918 83.2334 100.015 82.3237 98.8997 82.3237C97.7849 82.3237 96.8811 83.2334 96.8811 84.3555C96.8811 85.4776 97.7849 86.3873 98.8997 86.3873Z" fill="#D72F5D"/>
<path d="M77.9112 204.409C77.9125 204.813 77.7949 205.207 77.5731 205.543C77.3514 205.88 77.0356 206.142 76.6656 206.297C76.2957 206.452 75.8883 206.494 75.495 206.416C75.1017 206.338 74.7402 206.144 74.4563 205.86C74.1725 205.575 73.9789 205.212 73.9002 204.816C73.8216 204.42 73.8613 204.01 74.0144 203.637C74.1675 203.264 74.427 202.946 74.7602 202.721C75.0934 202.497 75.4852 202.377 75.886 202.377C76.422 202.377 76.9361 202.591 77.3158 202.972C77.6954 203.353 77.9095 203.87 77.9112 204.409Z" fill="#D72F5D"/>
<path d="M130.626 53.21C131.741 53.21 132.644 52.3004 132.644 51.1783C132.644 50.0561 131.741 49.1465 130.626 49.1465C129.511 49.1465 128.607 50.0561 128.607 51.1783C128.607 52.3004 129.511 53.21 130.626 53.21Z" fill="#F6605D"/>
<path d="M107.178 205.977C107.178 206.381 107.059 206.775 106.837 207.11C106.614 207.445 106.298 207.706 105.928 207.861C105.558 208.015 105.151 208.055 104.758 207.977C104.365 207.898 104.004 207.704 103.721 207.419C103.438 207.134 103.245 206.77 103.167 206.375C103.088 205.98 103.129 205.57 103.282 205.197C103.435 204.825 103.695 204.506 104.028 204.282C104.361 204.059 104.752 203.939 105.153 203.939C105.69 203.939 106.205 204.154 106.585 204.536C106.965 204.918 107.178 205.437 107.178 205.977Z" fill="#F6605D"/>
<path d="M110.097 173.416C111.212 173.416 112.116 172.506 112.116 171.384C112.116 170.262 111.212 169.353 110.097 169.353C108.983 169.353 108.079 170.262 108.079 171.384C108.079 172.506 108.983 173.416 110.097 173.416Z" fill="#F6605D"/>
<path d="M88.3265 129.75C89.4414 129.75 90.3451 128.84 90.3451 127.718C90.3451 126.596 89.4414 125.686 88.3265 125.686C87.2116 125.686 86.3079 126.596 86.3079 127.718C86.3079 128.84 87.2116 129.75 88.3265 129.75Z" fill="#F6605D"/>
<path d="M183.965 57.1212C185.08 57.1212 185.984 56.2115 185.984 55.0894C185.984 53.9673 185.08 53.0576 183.965 53.0576C182.85 53.0576 181.946 53.9673 181.946 55.0894C181.946 56.2115 182.85 57.1212 183.965 57.1212Z" fill="#F6605D"/>
<path d="M59.0926 80.755C60.2075 80.755 61.1112 79.8453 61.1112 78.7232C61.1112 77.6011 60.2075 76.6914 59.0926 76.6914C57.9777 76.6914 57.074 77.6011 57.074 78.7232C57.074 79.8453 57.9777 80.755 59.0926 80.755Z" fill="#F6605D"/>
<path d="M110.255 27.6968C110.257 28.1003 110.139 28.495 109.917 28.8311C109.696 29.1672 109.38 29.4295 109.01 29.5848C108.64 29.7401 108.232 29.7814 107.839 29.7035C107.446 29.6256 107.084 29.432 106.801 29.1471C106.517 28.8623 106.323 28.4991 106.244 28.1036C106.166 27.708 106.206 27.2978 106.359 26.9249C106.512 26.5521 106.771 26.2333 107.104 26.009C107.438 25.7848 107.829 25.665 108.23 25.665C108.766 25.665 109.28 25.8789 109.66 26.2597C110.04 26.6406 110.254 27.1574 110.255 27.6968Z" fill="#F6605D"/>
<path d="M208.096 38.1733C208.315 38.3949 208.464 38.6768 208.524 38.9833C208.584 39.2899 208.552 39.6075 208.433 39.8959C208.314 40.1844 208.112 40.4309 207.854 40.6043C207.596 40.7777 207.292 40.8702 206.982 40.8702C206.672 40.8702 206.368 40.7777 206.11 40.6043C205.852 40.4309 205.65 40.1844 205.531 39.8959C205.412 39.6075 205.38 39.2899 205.44 38.9833C205.5 38.6768 205.649 38.3949 205.867 38.1733C206.163 37.8763 206.564 37.7095 206.982 37.7095C207.4 37.7095 207.801 37.8763 208.096 38.1733Z" fill="#F6605D"/>
<path d="M216.723 28.769C217.591 28.769 218.295 28.0608 218.295 27.1872C218.295 26.3136 217.591 25.6055 216.723 25.6055C215.855 25.6055 215.152 26.3136 215.152 27.1872C215.152 28.0608 215.855 28.769 216.723 28.769Z" fill="#F6605D"/>
<path d="M115.851 47.0288C115.851 47.2605 115.783 47.487 115.655 47.6796C115.527 47.8723 115.345 48.0224 115.132 48.1111C114.92 48.1997 114.686 48.2229 114.46 48.1777C114.234 48.1325 114.027 48.021 113.864 47.8572C113.701 47.6933 113.59 47.4846 113.546 47.2574C113.501 47.0301 113.524 46.7946 113.612 46.5806C113.7 46.3665 113.849 46.1836 114.04 46.0548C114.232 45.9261 114.457 45.8574 114.687 45.8574C114.996 45.8574 115.292 45.9808 115.51 46.2005C115.728 46.4202 115.851 46.7182 115.851 47.0288Z" fill="#F6605D"/>
<path d="M123.708 57.2007C123.71 57.434 123.642 57.6624 123.514 57.857C123.387 58.0516 123.204 58.2036 122.991 58.2938C122.777 58.384 122.541 58.4082 122.314 58.3635C122.086 58.3188 121.877 58.2072 121.713 58.0427C121.548 57.8782 121.436 57.6683 121.391 57.4396C121.345 57.2109 121.368 56.9737 121.456 56.7581C121.545 56.5424 121.695 56.358 121.887 56.2283C122.08 56.0986 122.306 56.0293 122.538 56.0293C122.847 56.0293 123.144 56.1525 123.363 56.372C123.583 56.5915 123.707 56.8894 123.708 57.2007Z" fill="#F6605D"/>
<path d="M70.2905 84.355C70.2918 84.5883 70.2243 84.8167 70.0965 85.0113C69.9687 85.2059 69.7863 85.3579 69.5726 85.4481C69.3588 85.5383 69.1233 85.5625 68.8958 85.5178C68.6684 85.4731 68.4592 85.3615 68.2948 85.197C68.1305 85.0325 68.0184 84.8226 67.9727 84.5939C67.927 84.3652 67.9498 84.128 68.0382 83.9124C68.1266 83.6967 68.2766 83.5123 68.4692 83.3826C68.6618 83.2529 68.8883 83.1836 69.1201 83.1836C69.4294 83.1836 69.7261 83.3068 69.9454 83.5263C70.1647 83.7458 70.2888 84.0437 70.2905 84.355Z" fill="#F6605D"/>
<path d="M80.7847 124.508C80.7847 124.741 80.7159 124.969 80.587 125.163C80.4581 125.357 80.2749 125.508 80.0606 125.597C79.8464 125.686 79.6107 125.709 79.3835 125.663C79.1563 125.617 78.9477 125.504 78.7843 125.338C78.6209 125.173 78.51 124.962 78.4655 124.733C78.4211 124.504 78.4452 124.267 78.5348 124.052C78.6244 123.837 78.7755 123.654 78.9688 123.525C79.1621 123.396 79.3891 123.328 79.6208 123.33C79.7742 123.33 79.9261 123.36 80.0677 123.419C80.2094 123.479 80.338 123.566 80.4461 123.675C80.5543 123.785 80.6399 123.914 80.698 124.057C80.7561 124.2 80.7855 124.353 80.7847 124.508Z" fill="#F6605D"/>
<path d="M107.224 82.7935C107.225 83.0268 107.158 83.2552 107.03 83.4498C106.902 83.6443 106.72 83.7964 106.506 83.8865C106.292 83.9767 106.057 84.001 105.829 83.9563C105.602 83.9116 105.393 83.7999 105.228 83.6354C105.064 83.471 104.952 83.2611 104.906 83.0324C104.861 82.8037 104.883 82.5665 104.972 82.3508C105.06 82.1352 105.21 81.9508 105.403 81.8211C105.595 81.6913 105.822 81.6221 106.054 81.6221C106.363 81.6221 106.66 81.7453 106.879 81.9648C107.098 82.1843 107.222 82.4822 107.224 82.7935Z" fill="#F6605D"/>
<path d="M177.666 54.3089C177.664 54.5403 177.595 54.7661 177.466 54.9579C177.338 55.1497 177.156 55.2988 176.943 55.3864C176.73 55.4741 176.496 55.4963 176.271 55.4504C176.046 55.4044 175.839 55.2923 175.677 55.1283C175.515 54.9642 175.404 54.7554 175.36 54.5284C175.316 54.3013 175.339 54.0661 175.427 53.8525C175.516 53.6388 175.665 53.4563 175.856 53.3278C176.047 53.1994 176.272 53.1309 176.502 53.1309C176.655 53.1309 176.807 53.1614 176.949 53.2207C177.09 53.2799 177.219 53.3668 177.327 53.4763C177.435 53.5858 177.521 53.7157 177.579 53.8586C177.637 54.0015 177.667 54.1545 177.666 54.3089Z" fill="#F6605D"/>
<path d="M76.4319 50.0005C76.4332 50.2341 76.3655 50.4628 76.2374 50.6575C76.1093 50.8522 75.9265 51.0043 75.7124 51.0942C75.4983 51.1842 75.2624 51.2081 75.0347 51.1629C74.8071 51.1176 74.598 51.0053 74.4339 50.8401C74.2698 50.675 74.1582 50.4645 74.1132 50.2353C74.0683 50.0062 74.092 49.7688 74.1814 49.5533C74.2708 49.3378 74.4218 49.1538 74.6153 49.0249C74.8088 48.896 75.036 48.8278 75.268 48.8291C75.5762 48.8309 75.8712 48.9548 76.0891 49.1741C76.307 49.3935 76.4301 49.6904 76.4319 50.0005Z" fill="#F6605D"/>
<path d="M105.981 31.2178C105.983 31.4511 105.915 31.6795 105.787 31.8741C105.66 32.0687 105.477 32.2207 105.263 32.3109C105.05 32.4011 104.814 32.4253 104.587 32.3806C104.359 32.3359 104.15 32.2242 103.986 32.0598C103.821 31.8953 103.709 31.6854 103.664 31.4567C103.618 31.228 103.641 30.9908 103.729 30.7751C103.817 30.5595 103.967 30.3751 104.16 30.2454C104.353 30.1156 104.579 30.0464 104.811 30.0464C105.12 30.0464 105.417 30.1696 105.636 30.3891C105.856 30.6086 105.98 30.9065 105.981 31.2178Z" fill="#F6605D"/>
<path d="M124.563 41.1582C124.565 41.3915 124.497 41.6199 124.369 41.8145C124.241 42.0091 124.059 42.1611 123.845 42.2513C123.632 42.3415 123.396 42.3658 123.169 42.3211C122.941 42.2764 122.732 42.1647 122.568 42.0002C122.403 41.8357 122.291 41.6258 122.245 41.3971C122.2 41.1684 122.222 40.9312 122.311 40.7156C122.399 40.4999 122.549 40.3156 122.742 40.1858C122.934 40.0561 123.161 39.9868 123.393 39.9868C123.702 39.9868 123.999 40.11 124.218 40.3295C124.437 40.549 124.561 40.8469 124.563 41.1582Z" fill="#F6605D"/>
<path d="M91.9824 210.279C91.9837 210.513 91.916 210.742 91.7879 210.936C91.6598 211.131 91.4771 211.283 91.2629 211.373C91.0488 211.463 90.8129 211.487 90.5853 211.442C90.3576 211.396 90.1485 211.284 89.9844 211.119C89.8203 210.954 89.7087 210.743 89.6638 210.514C89.6188 210.285 89.6426 210.048 89.732 209.832C89.8214 209.617 89.9724 209.433 90.1659 209.304C90.3593 209.175 90.5865 209.107 90.8186 209.108C91.1272 209.108 91.4233 209.231 91.6415 209.451C91.8598 209.671 91.9824 209.969 91.9824 210.279Z" fill="#F6605D"/>
<path d="M223.338 27.7964C223.339 28.0297 223.272 28.2581 223.144 28.4527C223.016 28.6473 222.834 28.7993 222.62 28.8895C222.406 28.9797 222.171 29.0039 221.943 28.9592C221.716 28.9145 221.507 28.8029 221.342 28.6384C221.178 28.4739 221.066 28.264 221.02 28.0353C220.975 27.8066 220.997 27.5694 221.086 27.3538C221.174 27.1381 221.324 26.9537 221.517 26.824C221.709 26.6943 221.936 26.625 222.168 26.625C222.477 26.625 222.774 26.7482 222.993 26.9677C223.212 27.1872 223.336 27.4851 223.338 27.7964Z" fill="#F6605D"/>
<path d="M206.045 45.2285C206.045 45.4602 205.977 45.6867 205.849 45.8793C205.721 46.072 205.539 46.2221 205.327 46.3108C205.114 46.3995 204.88 46.4227 204.654 46.3775C204.428 46.3323 204.221 46.2207 204.058 46.0569C203.895 45.893 203.785 45.6843 203.74 45.4571C203.695 45.2298 203.718 44.9943 203.806 44.7803C203.894 44.5662 204.043 44.3833 204.235 44.2545C204.426 44.1258 204.651 44.0571 204.881 44.0571C205.19 44.0571 205.486 44.1805 205.704 44.4002C205.922 44.6199 206.045 44.9179 206.045 45.2285Z" fill="#F6605D"/>
<path opacity="0.19" d="M246.529 226.792C246.529 228.288 239.954 229.506 231.807 229.506C223.66 229.506 217.092 228.288 217.092 226.792C217.092 225.296 223.667 224.079 231.807 224.079C239.947 224.079 246.529 225.296 246.529 226.792Z" fill="black"/>
<path opacity="0.19" d="M179.349 242.444C179.349 243.94 172.774 245.157 164.633 245.157C156.493 245.157 149.918 243.94 149.918 242.444C149.918 240.948 156.493 239.73 164.64 239.73C172.787 239.73 179.349 240.948 179.349 242.444Z" fill="black"/>
<path opacity="0.19" d="M147.63 243.072C147.63 244.568 141.054 245.786 132.908 245.786C124.761 245.786 118.185 244.568 118.185 243.072C118.185 241.577 124.761 240.359 132.908 240.359C141.054 240.359 147.63 241.563 147.63 243.072Z" fill="black"/>
<path d="M79.154 174.356C80.4766 175.727 81.9973 176.89 83.6647 177.804C86.2949 179.207 85.8412 184.376 85.0653 187.506C84.2894 190.637 80.8636 190.948 76.6686 190.815C72.4735 190.683 56.9425 188.936 53.0302 191.596C49.1179 194.257 83.0401 205.058 83.0401 205.058L104.66 199.869C104.66 199.869 92.9951 197.367 91.2856 192.357C89.576 187.347 89.7272 184.998 90.8187 182.966C91.9102 180.934 95.1716 179.207 98.2817 179.207C101.392 179.207 79.154 174.356 79.154 174.356Z" fill="#914004"/>
<path d="M226.626 204.25C226.626 204.25 229.013 202.794 229.841 202.688C230.67 202.582 232.018 204.879 232.018 204.879C232.249 204.151 232.563 203.451 232.951 202.794C233.569 201.749 235.851 204.462 235.851 204.462C235.851 204.462 236.061 202.477 236.37 202.377C236.679 202.278 239.277 204.879 239.277 204.879L236.785 208.115C236.785 208.115 228.802 208.737 228.388 208.426C227.974 208.115 226.626 204.25 226.626 204.25Z" fill="#343057"/>
<path d="M227.336 203.218C227.336 203.218 213.87 205.203 217.664 218.095C221.457 230.988 240.677 229.148 245.385 223.622C250.093 218.095 252.835 208.486 238.455 203.615C238.04 203.892 237.694 204.263 237.444 204.696C237.195 205.13 237.048 205.616 237.015 206.117C236.298 205.264 235.399 204.585 234.385 204.131C233.508 204.795 232.793 205.65 232.294 206.633C232.294 206.633 232.688 205.183 230.203 203.985C230.203 203.985 228.368 204.647 227.849 205.971L227.336 203.218Z" fill="#605A8F"/>
<path opacity="0.45" d="M241.552 217.923C237.751 226.884 226.33 226.031 220.596 223.218C227.303 230.266 241.44 228.228 245.385 223.595C249.988 218.155 252.736 208.77 239.112 203.827L239.066 204.019L238.455 203.588C238.455 203.588 245.497 208.638 241.552 217.923Z" fill="#343057"/>
<path opacity="0.16" d="M220.202 211.782C220.202 211.782 220.977 208.962 223.154 208.022C223.67 207.77 224.24 207.65 224.813 207.674C225.386 207.698 225.944 207.864 226.438 208.159C226.931 208.453 227.344 208.867 227.64 209.361C227.935 209.856 228.104 210.417 228.131 210.994C228.441 213.813 227.816 216.474 225.639 218.512C223.463 220.551 218.176 218.181 220.202 211.782Z" fill="#E0E6FF"/>
<path opacity="0.19" d="M130.626 37.088C136.294 37.088 140.89 36.1783 140.89 35.0562C140.89 33.9341 136.294 33.0244 130.626 33.0244C124.957 33.0244 120.362 33.9341 120.362 35.0562C120.362 36.1783 124.957 37.088 130.626 37.088Z" fill="black"/>
<path opacity="0.19" d="M207.781 30.9862C207.781 32.1112 203.178 33.0179 197.517 33.0179C191.855 33.0179 187.253 32.1112 187.253 30.9862C187.253 29.8611 191.855 28.9478 197.517 28.9478C203.178 28.9478 207.781 29.8611 207.781 30.9862Z" fill="black"/>
<path opacity="0.19" d="M158.775 58.6835C165.733 58.6835 171.373 57.5635 171.373 56.1818C171.373 54.8002 165.733 53.6802 158.775 53.6802C151.817 53.6802 146.177 54.8002 146.177 56.1818C146.177 57.5635 151.817 58.6835 158.775 58.6835Z" fill="black"/>
<path opacity="0.19" d="M81.6394 30.1987C88.5973 30.1987 94.2377 29.0786 94.2377 27.697C94.2377 26.3153 88.5973 25.1953 81.6394 25.1953C74.6815 25.1953 69.041 26.3153 69.041 27.697C69.041 29.0786 74.6815 30.1987 81.6394 30.1987Z" fill="black"/>
<path opacity="0.19" d="M169.19 29.8879C174.514 29.8879 178.83 29.4671 178.83 28.9481C178.83 28.4291 174.514 28.0083 169.19 28.0083C163.867 28.0083 159.551 28.4291 159.551 28.9481C159.551 29.4671 163.867 29.8879 169.19 29.8879Z" fill="black"/>
<path d="M126.904 9.74834C126.904 9.74834 124.682 9.49023 124.162 9.49023C123.643 9.49023 123.952 12.3559 123.952 12.3559C122.979 12.1567 121.992 12.035 120.999 11.9919C120.585 12.0978 120.427 15.1223 120.427 15.1223C119.33 14.8455 118.349 14.2242 117.626 13.3486C117.614 14.6754 117.685 16.0016 117.837 17.3195C118.041 18.3123 121.986 18.6763 122.242 18.4711C122.499 18.2659 128.818 13.1766 128.818 13.0442C128.818 12.9118 126.904 9.74834 126.904 9.74834Z" fill="#343057"/>
<path d="M117.613 13.3487C117.613 13.3487 117.771 15.6981 115.437 19.6095C113.102 23.5208 113.569 30.2515 119.014 34.0106C124.458 37.7698 135.656 36.0424 141.409 29.6294C147.163 23.2164 144.697 14.1296 139.7 10.9992C134.702 7.86881 128.811 10.2183 126.634 8.80859C126.337 9.68688 126.145 10.5978 126.062 11.522C126.062 12.5148 124.405 11.6809 123.11 11.6809C122.784 12.6665 122.542 13.6783 122.387 14.7054C122.334 15.6452 120.158 14.2884 119.533 14.1826C118.908 14.0767 119.428 14.9701 118.757 16.221C118.086 17.4718 117.613 13.3487 117.613 13.3487Z" fill="#605A8F"/>
<path opacity="0.45" d="M139.7 10.9992C136.379 8.91449 132.651 9.25864 129.883 9.30497L129.692 9.43733C143.066 10.9992 141.528 29.8875 128.66 32.912C120.46 34.8379 116.732 31.456 115.068 29.2654C115.917 31.1872 117.284 32.8311 119.014 34.0106C124.458 37.7698 135.656 36.0424 141.409 29.6294C147.163 23.2164 144.657 14.1296 139.7 10.9992Z" fill="#343057"/>
<path d="M159.242 5.47316C159.242 5.47316 161.622 4.01054 162.45 3.90465C163.279 3.79876 164.633 6.09526 164.633 6.09526C164.866 5.36837 165.177 4.66929 165.561 4.01054C166.218 2.96486 168.467 5.67832 168.467 5.67832C168.467 5.67832 168.671 3.69286 168.986 3.59359C169.302 3.49432 171.886 6.09526 171.886 6.09526L169.401 9.33156C169.401 9.33156 161.418 9.99337 161.004 9.64261C160.59 9.29185 159.242 5.47316 159.242 5.47316Z" fill="#343057"/>
<path d="M159.952 4.44092C159.952 4.44092 146.479 6.42637 150.273 19.312C154.067 32.1976 173.287 30.371 177.995 24.8382C182.702 19.3054 185.425 9.70237 171.064 4.83801C170.653 5.1167 170.312 5.4866 170.065 5.91918C169.819 6.35177 169.675 6.83549 169.644 7.33306C168.923 6.48415 168.025 5.80614 167.014 5.34761C166.137 6.01116 165.422 6.86662 164.923 7.84928C164.923 7.84928 165.311 6.3999 162.825 5.20201C162.825 5.20201 160.997 5.86383 160.471 7.18746L159.952 4.44092Z" fill="#605A8F"/>
<path opacity="0.45" d="M174.168 19.1399C170.367 28.1009 158.939 27.2472 153.206 24.4874C159.919 31.5358 174.049 29.4974 177.995 24.8646C182.63 19.4245 185.352 10.0399 171.728 5.10273L171.682 5.29466L171.064 4.87109C171.064 4.87109 178.106 9.85459 174.168 19.1399Z" fill="#343057"/>
<path d="M83.816 144.932C84.9308 144.932 85.8346 144.022 85.8346 142.9C85.8346 141.778 84.9308 140.868 83.816 140.868C82.7011 140.868 81.7974 141.778 81.7974 142.9C81.7974 144.022 82.7011 144.932 83.816 144.932Z" fill="#D72F5D"/>
<path d="M99.3665 147.433C100.481 147.433 101.385 146.524 101.385 145.401C101.385 144.279 100.481 143.37 99.3665 143.37C98.2517 143.37 97.3479 144.279 97.3479 145.401C97.3479 146.524 98.2517 147.433 99.3665 147.433Z" fill="#F6605D"/>
<path d="M61.4268 199.71C62.5417 199.71 63.4455 198.8 63.4455 197.678C63.4455 196.556 62.5417 195.646 61.4268 195.646C60.312 195.646 59.4082 196.556 59.4082 197.678C59.4082 198.8 60.312 199.71 61.4268 199.71Z" fill="#F6605D"/>
<path d="M104.811 144.461C104.812 144.695 104.745 144.924 104.616 145.118C104.488 145.313 104.306 145.465 104.092 145.555C103.877 145.645 103.642 145.669 103.414 145.624C103.186 145.579 102.977 145.466 102.813 145.301C102.649 145.136 102.537 144.925 102.492 144.696C102.447 144.467 102.471 144.23 102.561 144.014C102.65 143.799 102.801 143.615 102.994 143.486C103.188 143.357 103.415 143.289 103.647 143.29C103.8 143.29 103.951 143.32 104.093 143.379C104.234 143.438 104.362 143.524 104.47 143.633C104.578 143.742 104.664 143.871 104.722 144.013C104.781 144.155 104.811 144.308 104.811 144.461Z" fill="#F6605D"/>
<path d="M85.7622 203.39C85.7635 203.623 85.6958 203.852 85.5677 204.047C85.4396 204.241 85.2569 204.393 85.0427 204.483C84.8286 204.573 84.5927 204.597 84.3651 204.552C84.1374 204.507 83.9283 204.394 83.7642 204.229C83.6001 204.064 83.4885 203.854 83.4436 203.625C83.3986 203.395 83.4223 203.158 83.5117 202.942C83.6011 202.727 83.7522 202.543 83.9457 202.414C84.1391 202.285 84.3663 202.217 84.5984 202.218C84.9065 202.22 85.2015 202.344 85.4194 202.563C85.6373 202.783 85.7605 203.08 85.7622 203.39Z" fill="#F6605D"/>
<path d="M123.084 170.213C123.084 170.446 123.015 170.674 122.886 170.868C122.757 171.062 122.574 171.213 122.36 171.302C122.145 171.391 121.91 171.414 121.683 171.368C121.455 171.322 121.247 171.209 121.083 171.044C120.92 170.878 120.809 170.668 120.765 170.439C120.72 170.21 120.744 169.973 120.834 169.758C120.924 169.543 121.075 169.359 121.268 169.23C121.461 169.102 121.688 169.034 121.92 169.035C122.073 169.035 122.225 169.066 122.367 169.125C122.508 169.184 122.637 169.271 122.745 169.381C122.853 169.49 122.939 169.62 122.997 169.763C123.055 169.906 123.085 170.059 123.084 170.213Z" fill="#F6605D"/>
<path d="M92.0547 167.003C92.0547 167.236 91.986 167.464 91.8574 167.658C91.7288 167.851 91.546 168.002 91.3322 168.092C91.1183 168.181 90.883 168.204 90.6559 168.159C90.4289 168.113 90.2204 168.001 90.0567 167.836C89.893 167.671 89.7815 167.462 89.7364 167.233C89.6912 167.005 89.7144 166.768 89.803 166.552C89.8916 166.337 90.0416 166.153 90.234 166.024C90.4265 165.894 90.6528 165.825 90.8843 165.825C91.1947 165.825 91.4924 165.949 91.7119 166.17C91.9314 166.391 92.0547 166.691 92.0547 167.003Z" fill="#F6605D"/>
<path opacity="0.16" d="M122.854 26.1351C122.854 28.2066 121.387 29.8876 119.566 29.8876C117.745 29.8876 116.278 28.2066 116.278 26.1351C116.278 24.0636 117.745 22.376 119.566 22.376C121.387 22.376 122.854 24.057 122.854 26.1351Z" fill="#E0E6FF"/>
<path opacity="0.16" d="M120.414 19.7153C120.415 19.9436 120.349 20.1671 120.224 20.3575C120.099 20.5479 119.92 20.6965 119.711 20.7845C119.502 20.8725 119.271 20.8959 119.048 20.8516C118.826 20.8074 118.621 20.6976 118.461 20.5362C118.301 20.3747 118.192 20.1689 118.148 19.9449C118.104 19.7209 118.127 19.4888 118.214 19.2781C118.302 19.0675 118.449 18.8877 118.639 18.7616C118.828 18.6356 119.05 18.569 119.277 18.5703C119.426 18.5703 119.574 18.5999 119.712 18.6575C119.85 18.715 119.975 18.7994 120.081 18.9057C120.187 19.012 120.27 19.1382 120.328 19.2771C120.385 19.416 120.414 19.5649 120.414 19.7153Z" fill="#E0E6FF"/>
<path opacity="0.16" d="M151.233 13.7658C151.233 13.7658 151.89 10.1655 153.863 8.65657C155.836 7.14763 158.939 6.8829 158.893 10.5295C158.847 14.1761 157.749 16.1682 158.472 19.2986C159.196 22.429 155.467 23.3158 153.81 21.8003C152.153 20.2847 150.575 17.9419 151.233 13.7658Z" fill="#E0E6FF"/>
<path d="M188.37 7.97493C188.37 7.97493 190.547 6.41304 191.171 6.51231C192.191 6.82973 193.07 7.49418 193.657 8.39188C193.657 8.39188 195.419 5.99609 196.044 5.99609C196.668 5.99609 198.115 8.18671 198.115 8.18671L198.431 6.51231C199.285 7.02665 199.914 7.84698 200.193 8.80882C200.607 10.3773 198.01 12.4621 198.01 12.4621C198.01 12.4621 192.309 14.7586 191.895 14.5534C191.48 14.3482 188.37 7.97493 188.37 7.97493Z" fill="#343057"/>
<path d="M188.791 7.06152C188.791 7.06152 175.325 9.04698 179.119 21.9326C182.913 34.8182 202.133 32.985 206.84 27.4588C211.548 21.9326 214.29 12.323 199.89 7.452C199.482 7.72903 199.143 8.09587 198.897 8.52472C198.65 8.95358 198.505 9.43318 198.47 9.9272C197.753 9.07418 196.854 8.39542 195.84 7.94174C194.966 8.60779 194.251 9.46266 193.749 10.4434C193.749 10.4434 194.143 8.99403 191.658 7.79614C191.658 7.79614 189.823 8.45796 189.304 9.7816L188.791 7.06152Z" fill="#605A8F"/>
<path opacity="0.45" d="M207.307 11.4761C208.675 16.1816 206.795 24.269 198.273 27.5384C191.303 30.1857 184.031 27.598 181.572 26.5391C188.061 34.2294 202.797 32.2042 206.841 27.459C210.464 23.2101 212.91 16.5456 207.307 11.4761Z" fill="#343057"/>
<path opacity="0.16" d="M182.512 11.5418C183.353 10.9652 184.379 10.7289 185.385 10.88C186.865 11.2043 188.213 12.9052 186.76 15.1951C185.306 17.485 183.012 21.4956 181.085 20.033C179.158 18.5703 179.31 17.0085 180.184 14.6458C180.709 13.4424 181.506 12.3794 182.512 11.5418Z" fill="#E0E6FF"/>
<path d="M181.479 23.3156C181.479 23.3156 173.55 22.5347 170.124 28.9477C166.698 35.3607 168.414 43.19 174.634 46.3204C180.855 49.4508 189.1 49.9207 194.071 43.6731C199.042 37.4256 200.758 24.7253 181.479 23.3156Z" fill="#605A8F"/>
<path d="M179.665 23.3689C179.665 23.3689 181.578 24.6925 181.841 25.9235C181.841 25.9235 183.445 24.9308 184.642 25.1426C185.839 25.3544 186.45 27.2273 186.45 27.2273C186.45 27.2273 188.476 25.2419 189.409 25.9037C190.343 26.5655 191.014 27.7303 190.862 27.6773C190.711 27.6244 191.066 25.7978 191.842 26.0096C191.842 26.0096 191.185 23.2961 189.981 23.4549C189.218 23.5729 188.5 23.8952 187.903 24.3881C187.746 23.6068 187.337 22.8996 186.74 22.3762C185.859 21.7144 183.991 23.5741 183.991 23.5741C183.603 22.8605 183.031 22.2659 182.334 21.8533C181.322 21.3305 179.665 23.3689 179.665 23.3689Z" fill="#343057"/>
<path opacity="0.45" d="M195.801 29.4707C195.945 30.4436 196.879 38.3391 188.712 42.8262C179.954 47.631 170.959 40.4304 169.9 38.6038C169.771 38.3788 169.574 38.201 169.337 38.0963C169.101 37.9916 168.837 37.9654 168.585 38.0214C169.407 41.5754 171.478 44.7256 174.654 46.3206C180.875 49.451 189.12 49.9209 194.091 43.6733C197.017 39.9605 198.819 34.0108 195.801 29.4707Z" fill="#343057"/>
<path d="M154.764 30.7216C154.764 30.7216 144.566 30.1988 141.166 38.6171C137.767 47.0354 141.429 57.0488 155.941 57.1811C170.453 57.3135 172.932 48.2267 172.682 42.5682C172.432 36.9096 167.323 30.1988 154.764 30.7216Z" fill="#605A8F"/>
<path d="M152.291 35.7383C152.291 35.7383 152.193 32.919 153.541 33.7529C154.229 34.1439 154.855 34.6345 155.402 35.2089C155.402 35.2089 155.921 33.958 156.717 33.7529C157.512 33.5477 157.808 36.2545 157.808 36.2545C157.808 36.2545 159.879 35.1096 160.609 35.7317C161.339 36.3538 159.676 37.7172 159.676 37.7172C159.676 37.7172 160.813 38.24 159.879 38.968C158.946 39.696 159.676 41.4697 157.598 41.4697C157.338 41.4911 157.077 41.4535 156.834 41.3596C156.591 41.2657 156.372 41.1179 156.193 40.9272C156.014 40.7366 155.881 40.5078 155.802 40.258C155.723 40.0083 155.701 39.7438 155.737 39.4842C155.737 39.4842 154.179 41.2579 153.14 40.5233C152.101 39.7886 152.416 38.3326 152.416 38.3326C152.019 38.3235 151.629 38.2139 151.285 38.0138C150.94 37.8137 150.651 37.5297 150.444 37.1877C149.806 36.0428 152.291 35.7383 152.291 35.7383Z" fill="#343057"/>
<path opacity="0.45" d="M172.682 42.5682C172.64 41.7265 172.497 40.8931 172.254 40.0864C172.412 44.2294 170.61 51.9992 159.551 54.4082C148.78 56.7907 142.317 51.0197 141.258 49.9806C143.323 54.0839 148.004 57.1084 155.941 57.1812C170.459 57.3069 172.931 48.2268 172.682 42.5682Z" fill="#343057"/>
<path opacity="0.16" d="M142.448 41.1055C142.87 39.8751 143.739 38.8512 144.881 38.2398C146.643 37.4523 149.287 38.1869 149.484 41.6283C149.681 45.0698 150.312 50.8938 147.255 50.8607C144.197 50.8276 143.185 49.0937 142.33 46.0096C141.989 44.388 142.029 42.7086 142.448 41.1055Z" fill="#E0E6FF"/>
<path opacity="0.19" d="M194.696 176.706C200.978 176.706 206.071 175.692 206.071 174.442C206.071 173.192 200.978 172.179 194.696 172.179C188.413 172.179 183.321 173.192 183.321 174.442C183.321 175.692 188.413 176.706 194.696 176.706Z" fill="black"/>
<path d="M195.011 151.166C195.011 151.166 185.806 150.69 182.729 158.3C179.651 165.911 182.965 174.939 196.07 175.058C209.175 175.177 211.424 166.977 211.193 161.868C210.963 156.758 206.347 150.69 195.011 151.166Z" fill="#605A8F"/>
<path d="M192.776 155.692C192.776 155.692 192.684 153.144 193.9 153.899C194.523 154.254 195.09 154.7 195.584 155.223C195.584 155.223 196.057 154.091 196.8 153.899C197.543 153.707 197.74 156.162 197.74 156.162C197.74 156.162 199.614 155.123 200.265 155.692C200.916 156.262 199.424 157.479 199.424 157.479C199.424 157.479 200.456 157.949 199.614 158.611C198.773 159.273 199.424 160.875 197.55 160.875C197.315 160.892 197.08 160.857 196.861 160.772C196.642 160.687 196.445 160.553 196.283 160.381C196.122 160.21 196.001 160.004 195.929 159.779C195.857 159.554 195.835 159.315 195.866 159.081C195.866 159.081 194.466 160.683 193.526 160.027C193.249 159.786 193.042 159.475 192.926 159.125C192.811 158.776 192.791 158.402 192.868 158.042C192.509 158.033 192.158 157.933 191.848 157.751C191.538 157.57 191.278 157.312 191.093 157.003C190.527 155.97 192.776 155.692 192.776 155.692Z" fill="#343057"/>
<path opacity="0.45" d="M211.187 161.867C211.152 161.104 211.024 160.349 210.805 159.617C210.944 163.363 209.319 170.352 199.331 172.562C189.607 174.707 183.768 169.498 182.808 168.558C184.675 172.265 188.91 174.991 196.07 175.057C209.181 175.177 211.424 166.977 211.187 161.867Z" fill="#343057"/>
<path opacity="0.16" d="M183.886 160.544C184.264 159.429 185.049 158.502 186.082 157.949C187.674 157.248 190.06 157.903 190.251 161.014C190.442 164.124 191.001 169.405 188.239 169.353C185.477 169.3 184.563 167.758 183.787 164.971C183.479 163.508 183.513 161.992 183.886 160.544Z" fill="#E0E6FF"/>
<path opacity="0.16" d="M176.581 33.2234C175.772 35.1295 173.767 36.0957 172.11 35.381C170.453 34.6662 169.769 32.5418 170.578 30.6357C171.386 28.7297 173.392 27.7568 175.049 28.4716C176.706 29.1864 177.39 31.3108 176.581 33.2234Z" fill="#E0E6FF"/>
<path opacity="0.16" d="M177.784 26.9824C177.695 27.1921 177.546 27.3705 177.357 27.4951C177.167 27.6196 176.945 27.6846 176.718 27.682C176.492 27.6793 176.271 27.609 176.084 27.48C175.898 27.351 175.753 27.1691 175.669 26.9573C175.585 26.7456 175.566 26.5135 175.613 26.2905C175.66 26.0676 175.772 25.8637 175.934 25.7048C176.097 25.5458 176.302 25.439 176.525 25.3978C176.748 25.3567 176.978 25.383 177.186 25.4734C177.463 25.5943 177.682 25.8208 177.794 26.1036C177.907 26.3864 177.903 26.7023 177.784 26.9824Z" fill="#E0E6FF"/>
<path d="M151.93 223.35C151.93 223.35 154.422 219.28 155.665 219.28C156.48 219.306 157.278 219.518 157.999 219.902C157.999 219.902 158.926 217.738 160.175 217.738C161.425 217.738 163.752 219.148 163.752 219.148L163.286 225.104L151.93 223.35Z" fill="#343057"/>
<path d="M152.778 220.518C152.778 220.518 140.239 225.852 147.15 237.368C154.06 248.884 172.195 242.206 175.358 235.66C178.521 229.115 178.771 219.115 163.627 218.069C163.297 218.444 163.056 218.89 162.924 219.373C162.791 219.856 162.771 220.363 162.865 220.856C161.961 220.219 160.928 219.794 159.84 219.611C159.159 220.476 158.683 221.486 158.446 222.563C158.446 222.563 158.446 221.061 155.757 220.578C155.757 220.578 154.152 221.676 153.975 223.086L152.778 220.518Z" fill="#605A8F"/>
<path opacity="0.16" d="M149.661 230.194C149.661 230.194 150.279 227.957 152.009 227.209C152.418 227.011 152.87 226.918 153.324 226.938C153.778 226.958 154.22 227.091 154.611 227.325C155.002 227.559 155.329 227.886 155.563 228.278C155.797 228.67 155.932 229.115 155.954 229.571C156.129 230.651 156.041 231.757 155.698 232.795C155.354 233.832 154.765 234.77 153.981 235.528C152.259 237.163 148.057 235.296 149.661 230.194Z" fill="#E0E6FF"/>
<path d="M137.425 219.598C137.425 219.598 135.847 217.996 135.452 217.672C135.058 217.348 133.512 219.783 133.512 219.783C132.874 219.015 132.177 218.298 131.428 217.639C131.04 217.46 129.041 219.724 129.041 219.724C128.353 218.82 127.973 217.718 127.956 216.58C127.124 217.607 126.358 218.686 125.661 219.81C125.208 220.716 128.055 223.476 128.39 223.476C128.726 223.476 136.8 223.476 136.899 223.377C136.997 223.278 137.425 219.598 137.425 219.598Z" fill="#343057"/>
<path d="M127.956 216.58C127.956 216.58 126.641 218.513 122.374 220.101C118.106 221.689 114.312 227.242 116.232 233.602C118.152 239.962 127.969 245.647 136.445 244.251C144.921 242.854 148.603 234.198 146.663 228.625C144.723 223.053 138.641 221.173 137.819 218.698C137.043 219.198 136.327 219.789 135.689 220.458C135.071 221.233 134.295 219.538 133.282 218.724C132.415 219.287 131.599 219.925 130.843 220.63C130.185 221.332 129.357 218.903 128.936 218.433C128.515 217.963 128.37 218.976 127.069 219.532C125.767 220.088 127.956 216.58 127.956 216.58Z" fill="#605A8F"/>
<path opacity="0.16" d="M119.783 224.303C119.783 224.303 121.499 222.04 123.814 221.98C124.371 221.94 124.93 222.041 125.44 222.272C125.95 222.503 126.395 222.857 126.735 223.304C127.075 223.751 127.3 224.275 127.389 224.831C127.478 225.386 127.429 225.955 127.246 226.487C126.516 229.134 124.991 231.338 122.288 232.384C119.586 233.43 115.641 229.379 119.783 224.303Z" fill="#E0E6FF"/>
<path opacity="0.45" d="M139.022 223.82C141.357 227.573 142.757 234.621 136.392 239.155C130.843 243.125 121.269 239.115 118.908 238.016C122.854 242.298 130.034 245.296 136.458 244.251C144.927 242.854 148.616 234.198 146.676 228.625C144.736 223.053 138.654 221.173 137.832 218.698C137.819 218.704 136.688 220.061 139.022 223.82Z" fill="#343057"/>
<path opacity="0.45" d="M149.872 240.571C157.946 247.374 172.55 241.471 175.358 235.66C178.337 229.512 178.731 220.333 166.231 218.36C169.335 219.022 174.023 221.305 173.392 228.83C172.471 239.764 158.61 243.873 149.872 240.571Z" fill="#343057"/>
<path d="M79.075 5.21514C79.075 5.21514 66.3583 4.8379 64.1161 15.7513C61.8739 26.6647 73.8345 33.0909 87.6756 26.2874C101.517 19.4839 97.0191 2.20386 79.075 5.21514Z" fill="#605A8F"/>
<path d="M78.1349 6.28058C78.1349 6.28058 78.8845 2.97149 78.0165 1.64785C77.1486 0.324215 78.5754 -0.0397846 79.2001 0.0197791C79.8248 0.0793427 80.1338 3.65978 79.5091 4.9768C78.8845 6.29382 78.7596 7.22036 78.1349 6.28058Z" fill="#343057"/>
<path opacity="0.45" d="M91.0225 6.87646C93.0609 9.98039 93.7578 18.8686 85.0587 24.7853C76.6685 30.4901 67.2263 25.5 66.2598 24.9573C70.205 29.4908 78.5294 30.7681 87.6757 26.281C97.565 21.4431 98.0844 11.2511 91.0225 6.87646Z" fill="#343057"/>
<path opacity="0.16" d="M66.7924 13.6465C66.7924 13.6465 67.6603 11.3831 69.5343 10.7874C69.9803 10.6214 70.4602 10.5694 70.9311 10.6361C71.4019 10.7028 71.849 10.886 72.2321 11.1693C72.6153 11.4527 72.9227 11.8273 73.1266 12.2597C73.3305 12.692 73.4247 13.1685 73.4006 13.6465C73.4006 15.9959 72.697 18.1402 70.7705 19.6425C68.8439 21.1449 64.6028 18.7756 66.7924 13.6465Z" fill="#E0E6FF"/>
<path opacity="0.18" d="M167.329 173.264C167.329 174.296 166.073 175.143 164.528 175.143C162.983 175.143 161.753 174.296 161.753 173.264C161.753 172.231 163.009 171.384 164.555 171.384C166.1 171.384 167.329 172.225 167.329 173.264Z" fill="#CC562A"/>
<path opacity="0.18" d="M57.2252 159.174C58.7722 159.174 60.0263 158.332 60.0263 157.294C60.0263 156.256 58.7722 155.415 57.2252 155.415C55.6782 155.415 54.4241 156.256 54.4241 157.294C54.4241 158.332 55.6782 159.174 57.2252 159.174Z" fill="#CC562A"/>
<path opacity="0.34" d="M139.956 214.27C139.956 215.309 138.7 216.15 137.155 216.15C135.61 216.15 134.361 215.309 134.361 214.27C134.361 213.231 135.61 212.391 137.155 212.391C138.7 212.391 139.956 213.231 139.956 214.27Z" fill="#CC562A"/>
<path opacity="0.28" d="M218.019 167.943C219.566 167.943 220.82 167.102 220.82 166.064C220.82 165.026 219.566 164.184 218.019 164.184C216.472 164.184 215.218 165.026 215.218 166.064C215.218 167.102 216.472 167.943 218.019 167.943Z" fill="#CC562A"/>
<path opacity="0.38" d="M156.75 135.673C156.75 136.705 155.5 137.552 153.955 137.552C152.41 137.552 151.154 136.705 151.154 135.673C151.154 134.64 152.403 133.793 153.955 133.793C155.507 133.793 156.75 134.66 156.75 135.673Z" fill="#CC562A"/>
<path opacity="0.38" d="M140.89 85.2948C140.89 86.3339 139.634 87.1744 138.089 87.1744C136.544 87.1744 135.294 86.3339 135.294 85.2948C135.294 84.2558 136.544 83.4219 138.089 83.4219C139.634 83.4219 140.89 84.2624 140.89 85.2948Z" fill="#CC562A"/>
<path opacity="0.38" d="M213.981 79.6628C213.981 80.7018 212.725 81.5423 211.18 81.5423C209.635 81.5423 208.379 80.7018 208.379 79.6628C208.379 78.6237 209.635 77.7832 211.18 77.7832C212.725 77.7832 213.981 78.6237 213.981 79.6628Z" fill="#CC562A"/>
<path opacity="0.21" d="M60.0262 43.349C61.5732 43.349 62.8273 42.5075 62.8273 41.4694C62.8273 40.4314 61.5732 39.5898 60.0262 39.5898C58.4792 39.5898 57.2251 40.4314 57.2251 41.4694C57.2251 42.5075 58.4792 43.349 60.0262 43.349Z" fill="#CC562A"/>
<path opacity="0.21" d="M210.871 55.2487C210.871 56.2811 209.615 57.1217 208.07 57.1217C206.525 57.1217 205.269 56.2811 205.269 55.2487C205.269 54.2163 206.525 53.3691 208.07 53.3691C209.615 53.3691 210.871 54.2097 210.871 55.2487Z" fill="#CC562A"/>
<path opacity="0.41" d="M238.862 50.8608C238.862 51.8998 237.607 52.7404 236.061 52.7404C234.516 52.7404 233.26 51.8998 233.26 50.8608C233.26 49.8217 234.516 48.9746 236.055 48.9746C237.593 48.9746 238.862 49.8284 238.862 50.8608Z" fill="#CC562A"/>
<path opacity="0.21" d="M89.4246 36.6184C89.4246 37.2272 88.6948 37.717 87.7874 37.717C86.88 37.717 86.137 37.2272 86.137 36.6184C86.137 36.0095 86.8668 35.5264 87.7676 35.5264C88.6685 35.5264 89.4246 36.0161 89.4246 36.6184Z" fill="#CC562A"/>
<path opacity="0.21" d="M108.309 21.2775C108.309 21.8864 107.579 22.3762 106.678 22.3762C105.777 22.3762 105.048 21.8864 105.048 21.2775C105.048 20.6687 105.777 20.1855 106.678 20.1855C107.579 20.1855 108.309 20.6753 108.309 21.2775Z" fill="#CC562A"/>
<path opacity="0.21" d="M63.5243 31.1384C63.5243 31.7473 62.7944 32.237 61.8936 32.237C60.9928 32.237 60.2563 31.7473 60.2563 31.1384C60.2563 30.5295 60.9928 30.0464 61.8936 30.0464C62.7944 30.0464 63.5243 30.5361 63.5243 31.1384Z" fill="#CC562A"/>
<path opacity="0.21" d="M75.6559 33.9577C75.6559 34.5666 74.926 35.0563 74.0186 35.0563C73.1112 35.0563 72.3879 34.5666 72.3879 33.9577C72.3879 33.3489 73.1178 32.8657 74.0186 32.8657C74.9194 32.8657 75.6559 33.3555 75.6559 33.9577Z" fill="#CC562A"/>
<path opacity="0.21" d="M113.911 17.6836C113.911 18.2858 113.181 18.7756 112.274 18.7756C111.367 18.7756 110.643 18.2858 110.643 17.6836C110.643 17.0813 111.373 16.585 112.274 16.585C113.175 16.585 113.911 17.0747 113.911 17.6836Z" fill="#CC562A"/>
<path opacity="0.38" d="M127.516 99.3851C129.063 99.3851 130.317 98.5436 130.317 97.5055C130.317 96.4675 129.063 95.626 127.516 95.626C125.969 95.626 124.715 96.4675 124.715 97.5055C124.715 98.5436 125.969 99.3851 127.516 99.3851Z" fill="#CC562A"/>
<path opacity="0.38" d="M226.731 104.395C226.731 105.428 225.475 106.268 223.93 106.268C222.385 106.268 221.129 105.428 221.129 104.395C221.129 103.363 222.385 102.516 223.93 102.516C225.475 102.516 226.731 103.356 226.731 104.395Z" fill="#CC562A"/>
<path opacity="0.38" d="M152.706 215.839C152.706 216.871 151.456 217.712 149.911 217.712C148.366 217.712 147.11 216.871 147.11 215.839C147.11 214.806 148.366 213.959 149.911 213.959C151.456 213.959 152.706 214.799 152.706 215.839Z" fill="#CC562A"/>
<path opacity="0.16" d="M168.572 185.785C168.572 186.818 167.316 187.665 165.771 187.665C164.226 187.665 162.97 186.818 162.97 185.785C162.97 184.753 164.226 183.906 165.771 183.906C167.316 183.906 168.572 184.746 168.572 185.785Z" fill="#CC562A"/>
<path opacity="0.38" d="M213.666 126.93C215.213 126.93 216.467 126.089 216.467 125.05C216.467 124.012 215.213 123.171 213.666 123.171C212.119 123.171 210.865 124.012 210.865 125.05C210.865 126.089 212.119 126.93 213.666 126.93Z" fill="#CC562A"/>
<path opacity="0.38" d="M211.18 105.017C211.18 105.54 210.556 105.957 209.78 105.957C209.004 105.957 208.379 105.54 208.379 105.017C208.379 104.495 209.004 104.078 209.78 104.078C210.556 104.078 211.18 104.501 211.18 105.017Z" fill="#CC562A"/>
<path opacity="0.38" d="M158.617 213.959C159.391 213.959 160.018 213.538 160.018 213.019C160.018 212.5 159.391 212.08 158.617 212.08C157.844 212.08 157.217 212.5 157.217 213.019C157.217 213.538 157.844 213.959 158.617 213.959Z" fill="#CC562A"/>
<path opacity="0.38" d="M137.938 94.6864C137.938 95.2092 137.28 95.6262 136.537 95.6262C135.794 95.6262 135.136 95.2092 135.136 94.6864C135.136 94.1635 135.761 93.7466 136.537 93.7466C137.313 93.7466 137.938 94.1702 137.938 94.6864Z" fill="#CC562A"/>
<path opacity="0.38" d="M204.96 130.378C205.734 130.378 206.361 129.957 206.361 129.438C206.361 128.919 205.734 128.499 204.96 128.499C204.187 128.499 203.56 128.919 203.56 129.438C203.56 129.957 204.187 130.378 204.96 130.378Z" fill="#CC562A"/>
<path opacity="0.38" d="M198.74 129.438C199.513 129.438 200.14 129.017 200.14 128.498C200.14 127.979 199.513 127.559 198.74 127.559C197.966 127.559 197.339 127.979 197.339 128.498C197.339 129.017 197.966 129.438 198.74 129.438Z" fill="#CC562A"/>
<path opacity="0.18" d="M158.617 180.147C159.391 180.147 160.018 179.726 160.018 179.207C160.018 178.688 159.391 178.267 158.617 178.267C157.844 178.267 157.217 178.688 157.217 179.207C157.217 179.726 157.844 180.147 158.617 180.147Z" fill="#CC562A"/>
<path opacity="0.18" d="M103.568 186.097C104.342 186.097 104.969 185.676 104.969 185.157C104.969 184.638 104.342 184.217 103.568 184.217C102.795 184.217 102.168 184.638 102.168 185.157C102.168 185.676 102.795 186.097 103.568 186.097Z" fill="#CC562A"/>
<path opacity="0.18" d="M68.7321 171.384C69.5056 171.384 70.1326 170.964 70.1326 170.445C70.1326 169.926 69.5056 169.505 68.7321 169.505C67.9586 169.505 67.3315 169.926 67.3315 170.445C67.3315 170.964 67.9586 171.384 68.7321 171.384Z" fill="#CC562A"/>
<path opacity="0.18" d="M119.428 216.461C120.201 216.461 120.828 216.04 120.828 215.521C120.828 215.002 120.201 214.581 119.428 214.581C118.654 214.581 118.027 215.002 118.027 215.521C118.027 216.04 118.654 216.461 119.428 216.461Z" fill="#CC562A"/>
<path opacity="0.18" d="M137.004 167.003C137.004 167.519 136.346 167.943 135.603 167.943C134.86 167.943 134.203 167.519 134.203 167.003C134.203 166.487 134.86 166.063 135.603 166.063C136.346 166.063 137.004 166.48 137.004 167.003Z" fill="#CC562A"/>
<path opacity="0.18" d="M70.5995 161.682C71.373 161.682 72.0001 161.262 72.0001 160.743C72.0001 160.223 71.373 159.803 70.5995 159.803C69.826 159.803 69.199 160.223 69.199 160.743C69.199 161.262 69.826 161.682 70.5995 161.682Z" fill="#CC562A"/>
<path opacity="0.38" d="M169.506 132.569C170.279 132.569 170.906 132.148 170.906 131.629C170.906 131.11 170.279 130.689 169.506 130.689C168.732 130.689 168.105 131.11 168.105 131.629C168.105 132.148 168.732 132.569 169.506 132.569Z" fill="#CC562A"/>
<path opacity="0.38" d="M166.547 213.642C166.547 214.165 165.922 214.581 165.146 214.581C164.37 214.581 163.752 214.165 163.752 213.642C163.752 213.119 164.41 212.708 165.146 212.708C165.883 212.708 166.547 213.106 166.547 213.642Z" fill="#CC562A"/>
<path opacity="0.22" d="M64.5369 161.993C64.5369 162.509 63.8794 162.933 63.1364 162.933C62.3934 162.933 61.7358 162.509 61.7358 161.993C61.7358 161.477 62.3934 161.053 63.1364 161.053C63.8794 161.053 64.5369 161.483 64.5369 161.993Z" fill="#CC562A"/>
<path opacity="0.22" d="M57.5409 186.408C58.3144 186.408 58.9415 185.987 58.9415 185.468C58.9415 184.949 58.3144 184.528 57.5409 184.528C56.7674 184.528 56.1404 184.949 56.1404 185.468C56.1404 185.987 56.7674 186.408 57.5409 186.408Z" fill="#CC562A"/>
<path opacity="0.18" d="M153.021 172.953C153.795 172.953 154.422 172.532 154.422 172.013C154.422 171.494 153.795 171.073 153.021 171.073C152.248 171.073 151.621 171.494 151.621 172.013C151.621 172.532 152.248 172.953 153.021 172.953Z" fill="#CC562A"/>
<path opacity="0.18" d="M181.479 183.595C182.253 183.595 182.88 183.174 182.88 182.655C182.88 182.136 182.253 181.715 181.479 181.715C180.706 181.715 180.079 182.136 180.079 182.655C180.079 183.174 180.706 183.595 181.479 183.595Z" fill="#CC562A"/>
<path opacity="0.38" d="M163.594 86.235C164.368 86.235 164.995 85.8143 164.995 85.2953C164.995 84.7762 164.368 84.3555 163.594 84.3555C162.821 84.3555 162.194 84.7762 162.194 85.2953C162.194 85.8143 162.821 86.235 163.594 86.235Z" fill="#CC562A"/>
<path opacity="0.38" d="M224.219 76.2215C224.219 76.7377 223.594 77.1613 222.825 77.1613C222.056 77.1613 221.425 76.7377 221.425 76.2215C221.425 75.7053 222.082 75.2817 222.825 75.2817C223.568 75.2817 224.219 75.6987 224.219 76.2215Z" fill="#CC562A"/>
<path opacity="0.38" d="M204.184 79.6628C204.957 79.6628 205.585 79.242 205.585 78.723C205.585 78.204 204.957 77.7832 204.184 77.7832C203.41 77.7832 202.783 78.204 202.783 78.723C202.783 79.242 203.41 79.6628 204.184 79.6628Z" fill="#CC562A"/>
<path opacity="0.21" d="M67.4894 38.9679C68.2629 38.9679 68.89 38.5472 68.89 38.0282C68.89 37.5091 68.2629 37.0884 67.4894 37.0884C66.7159 37.0884 66.0889 37.5091 66.0889 38.0282C66.0889 38.5472 66.7159 38.9679 67.4894 38.9679Z" fill="#CC562A"/>
<path opacity="0.21" d="M104.66 17.3661C104.66 17.8889 104.002 18.3058 103.259 18.3058C102.516 18.3058 101.859 17.8889 101.859 17.3661C101.859 16.8432 102.516 16.4263 103.259 16.4263C104.002 16.4263 104.66 16.8498 104.66 17.3661Z" fill="#CC562A"/>
<path opacity="0.21" d="M216.158 52.4294C216.931 52.4294 217.558 52.0086 217.558 51.4896C217.558 50.9706 216.931 50.5498 216.158 50.5498C215.384 50.5498 214.757 50.9706 214.757 51.4896C214.757 52.0086 215.384 52.4294 216.158 52.4294Z" fill="#CC562A"/>
<path opacity="0.38" d="M234.036 95.6262C234.81 95.6262 235.437 95.2054 235.437 94.6864C235.437 94.1673 234.81 93.7466 234.036 93.7466C233.263 93.7466 232.635 94.1673 232.635 94.6864C232.635 95.2054 233.263 95.6262 234.036 95.6262Z" fill="#CC562A"/>
<path opacity="0.38" d="M173.083 89.6829C173.083 90.1992 172.425 90.6161 171.682 90.6161C170.939 90.6161 170.282 90.1992 170.282 89.6829C170.282 89.1667 170.906 88.7432 171.682 88.7432C172.458 88.7432 173.083 89.1601 173.083 89.6829Z" fill="#CC562A"/>
<path opacity="0.38" d="M123.939 91.5558C124.712 91.5558 125.339 91.1351 125.339 90.6161C125.339 90.097 124.712 89.6763 123.939 89.6763C123.165 89.6763 122.538 90.097 122.538 90.6161C122.538 91.1351 123.165 91.5558 123.939 91.5558Z" fill="#CC562A"/>
<path opacity="0.21" d="M79.7786 40.5298C79.7786 41.0527 79.1211 41.4696 78.3781 41.4696C77.6351 41.4696 76.9775 41.0527 76.9775 40.5298C76.9775 40.007 77.6351 39.5967 78.3781 39.5967C79.1211 39.5967 79.7786 40.0136 79.7786 40.5298Z" fill="#CC562A"/>
</g>
<defs>
<linearGradient id="paint0_linear_368_447" x1="287.836" y1="189.902" x2="10.6966" y2="211.227" gradientUnits="userSpaceOnUse">
<stop stop-color="#D72F5D"/>
<stop offset="0.33" stop-color="#D83360"/>
<stop offset="0.64" stop-color="#DA3E68"/>
<stop offset="0.93" stop-color="#DD5077"/>
<stop offset="1" stop-color="#DE567B"/>
</linearGradient>
<linearGradient id="paint1_linear_368_447" x1="4184.03" y1="28415.3" x2="111672" y2="28415.3" gradientUnits="userSpaceOnUse">
<stop stop-color="#D72F5D"/>
<stop offset="0.33" stop-color="#D83360"/>
<stop offset="0.64" stop-color="#DA3E68"/>
<stop offset="0.93" stop-color="#DD5077"/>
<stop offset="1" stop-color="#DE567B"/>
</linearGradient>
<linearGradient id="paint2_linear_368_447" x1="44.2916" y1="199.988" x2="252.605" y2="199.988" gradientUnits="userSpaceOnUse">
<stop stop-color="#F0A82C"/>
<stop offset="0.31" stop-color="#EFA42C"/>
<stop offset="0.59" stop-color="#EB992C"/>
<stop offset="0.86" stop-color="#E6872C"/>
<stop offset="1" stop-color="#E27A2C"/>
</linearGradient>
<linearGradient id="paint3_linear_368_447" x1="13578.1" y1="11901.4" x2="51027.1" y2="37123.3" gradientUnits="userSpaceOnUse">
<stop stop-color="#F0A82C"/>
<stop offset="0.31" stop-color="#EFA42C"/>
<stop offset="0.59" stop-color="#EB992C"/>
<stop offset="0.86" stop-color="#E6872C"/>
<stop offset="1" stop-color="#E27A2C"/>
</linearGradient>
<radialGradient id="paint4_radial_368_447" cx="0" cy="0" r="1" gradientUnits="userSpaceOnUse" gradientTransform="translate(46732.4 9014.85) scale(22410.1 5650.2)">
<stop stop-color="#F0A82C"/>
<stop offset="0.31" stop-color="#EFA42C"/>
<stop offset="0.59" stop-color="#EB992C"/>
<stop offset="0.86" stop-color="#E6872C"/>
<stop offset="1" stop-color="#E27A2C"/>
</radialGradient>
<radialGradient id="paint5_radial_368_447" cx="0" cy="0" r="1" gradientUnits="userSpaceOnUse" gradientTransform="translate(153.508 93.1641) scale(75.794 76.2878)">
<stop stop-color="#E27A2C"/>
<stop offset="0.28" stop-color="#E4802C"/>
<stop offset="0.66" stop-color="#E9932C"/>
<stop offset="1" stop-color="#F0A82C"/>
</radialGradient>
<radialGradient id="paint6_radial_368_447" cx="0" cy="0" r="1" gradientUnits="userSpaceOnUse" gradientTransform="translate(68066.4 491.733) scale(40999.1 8833.58)">
<stop stop-color="#F0A82C"/>
<stop offset="0.31" stop-color="#EFA42C"/>
<stop offset="0.59" stop-color="#EB992C"/>
<stop offset="0.86" stop-color="#E6872C"/>
<stop offset="1" stop-color="#E27A2C"/>
</radialGradient>
<linearGradient id="paint7_linear_368_447" x1="13671.6" y1="3002.69" x2="78909.7" y2="3002.69" gradientUnits="userSpaceOnUse">
<stop stop-color="#F0A82C"/>
<stop offset="0.31" stop-color="#EFA42C"/>
<stop offset="0.59" stop-color="#EB992C"/>
<stop offset="0.86" stop-color="#E6872C"/>
<stop offset="1" stop-color="#E27A2C"/>
</linearGradient>
<clipPath id="clip0_368_447">
<rect width="288" height="263" fill="white"/>
</clipPath>
</defs>
</svg>
