<svg width="38" height="43" viewBox="0 0 38 43" fill="none" xmlns="http://www.w3.org/2000/svg">
<path d="M18.2964 54.0665C17.4399 54.068 16.5857 53.9772 15.7486 53.7955C14.2854 53.4939 12.9071 52.8707 11.713 51.9705C10.5188 51.0704 9.53862 49.9159 8.84292 48.5901C8.29087 47.35 7.88078 46.0511 7.62049 44.7183L7.56044 44.4645C6.70259 40.7993 5.62171 36.9232 3.62722 33.4214C3.30553 32.8578 2.95381 32.2943 2.61496 31.7522C1.79518 30.5249 1.10109 29.2176 0.543263 27.8503C-0.314583 25.5058 -0.155881 23.1741 1.01508 21.6383C1.16932 21.3997 1.37002 21.1948 1.60514 21.0359C1.84025 20.8769 2.10494 20.7672 2.38334 20.7134C2.55298 20.6928 2.72503 20.7074 2.88882 20.7563C3.05261 20.8051 3.20466 20.8871 3.33555 20.9973C3.43765 21.079 3.52138 21.1814 3.58126 21.2978C3.64113 21.4142 3.6758 21.542 3.68298 21.6727H3.40418C3.39747 21.5815 3.37188 21.4927 3.32905 21.412C3.28621 21.3313 3.22707 21.2604 3.1554 21.2038C3.05357 21.119 2.93582 21.0555 2.8091 21.0171C2.68239 20.9786 2.54929 20.9661 2.41765 20.9801C1.93443 21.0906 1.51208 21.3832 1.23812 21.7975C0.127208 23.2645 -0.0486507 25.4886 0.809195 27.7428C1.3623 29.1003 2.05215 30.3976 2.86802 31.6146C3.20687 32.1609 3.55859 32.7245 3.88457 33.2923C5.88335 36.8199 6.9771 40.7175 7.83495 44.4043L7.895 44.6581C8.14983 45.9688 8.55276 47.2461 9.09598 48.4654C9.77204 49.7537 10.7249 50.8755 11.8857 51.7496C13.0466 52.6238 14.3864 53.2285 15.8086 53.5202C18.6844 54.0918 21.6681 53.6861 24.2884 52.3672C25.3376 51.8983 26.2848 51.2274 27.0764 50.3926C27.8817 49.4151 28.5023 48.2983 28.9079 47.0973C29.6242 45.2131 30.1947 43.2256 30.7094 41.3112C31.5029 38.4547 32.3221 35.4992 33.7119 32.8234C34.1408 32.0405 34.5697 31.2704 35.0244 30.5262C35.8757 29.1905 36.594 27.774 37.169 26.2973C37.6622 24.8949 37.6837 23.7162 37.2376 22.8558C37.081 22.5688 36.8634 22.3199 36.6003 22.1267C36.3372 21.9334 36.0349 21.8004 35.7149 21.7373C35.4915 21.6843 35.2589 21.6843 35.0355 21.7373C34.8121 21.7903 34.6042 21.8949 34.4282 22.0427L34.2437 21.8319C34.4507 21.6543 34.6961 21.5276 34.9604 21.4619C35.2247 21.3962 35.5007 21.3932 35.7664 21.4533C36.1295 21.5285 36.4715 21.6832 36.7681 21.9062C37.0647 22.1293 37.3085 22.4154 37.4821 22.7439C37.9668 23.6904 37.9453 24.9207 37.4263 26.4006C36.8454 27.8959 36.1154 29.3286 35.2474 30.6767C34.8185 31.421 34.3467 32.1867 33.9606 32.9611C32.5881 35.6111 31.7731 38.5536 30.9839 41.3929C30.4478 43.3202 29.8944 45.312 29.1696 47.2049C28.7549 48.4391 28.1181 49.5866 27.2909 50.5905C26.4733 51.4519 25.4956 52.1447 24.4128 52.6297C22.5065 53.5604 20.4165 54.0513 18.2964 54.0665Z" fill="url(#paint0_linear_414_5857)"/>
<path d="M21.4447 3.97428C21.6665 3.62121 21.7935 3.21665 21.8136 2.79984C21.8378 2.61264 21.8208 2.4224 21.7637 2.24252C21.7066 2.06265 21.6109 1.89751 21.4833 1.75877C21.3761 1.65552 21.2431 1.57378 21.1445 1.46193C21.0458 1.35008 20.9986 1.23393 20.9171 1.12638C20.8288 1.011 20.7151 0.917595 20.5849 0.853431C20.4547 0.789267 20.3116 0.756066 20.1665 0.756408C19.8706 0.756408 19.5574 0.894071 19.3087 0.756408C19.1543 0.678973 19.0513 0.524102 18.8797 0.438063C18.7183 0.355635 18.533 0.332793 18.3565 0.373534C18.2022 0.427491 18.0393 0.452289 17.8761 0.446667C17.6444 0.412251 17.4857 0.205757 17.2799 0.089604C17.174 0.0353338 17.0576 0.00493988 16.9389 0.000553499C16.8201 -0.00383288 16.7018 0.0178945 16.5923 0.064212C16.4827 0.11053 16.3846 0.180316 16.3048 0.268678C16.225 0.35704 16.1655 0.461839 16.1303 0.575726C16.1024 0.684361 16.1024 0.798341 16.1303 0.906977C16.1775 1.1694 16.3577 1.38019 16.3705 1.64261C16.3834 1.90503 16.2247 2.13304 16.3705 2.36534C16.5164 2.59765 16.7308 2.60625 16.8338 2.82565C16.971 3.12249 16.8338 3.50966 16.9582 3.82801C17.0225 4.0302 17.0568 4.31843 17.2455 4.44749C17.5072 4.62818 18.0777 4.47761 18.3908 4.44749L19.6046 4.34855C20.1408 4.29692 20.8013 4.34855 21.286 4.08183C21.3445 4.05513 21.3982 4.01878 21.4447 3.97428Z" fill="#3B2645"/>
<path d="M17.3272 3.78482C17.2846 3.72616 17.2288 3.67843 17.1643 3.64552C17.0998 3.61261 17.0285 3.59546 16.9561 3.59546C16.8838 3.59546 16.8125 3.61261 16.748 3.64552C16.6835 3.67843 16.6277 3.72616 16.5851 3.78482C16.212 4.21502 16.8425 5.07541 17.3272 5.12703C17.3554 4.68008 17.3554 4.23178 17.3272 3.78482Z" fill="#E0855C"/>
<path d="M23.3535 10.9906C23.2404 11.7153 23.0886 12.4333 22.8988 13.1416C22.8688 13.275 22.843 13.404 22.8259 13.5288C22.8087 13.6536 22.7916 13.7482 22.7701 13.9074C22.7701 13.9375 22.7701 13.9719 22.7701 14.002C22.7701 14.1053 22.7401 14.2128 22.7272 14.329L22.1868 19.3838C18.8283 20.3087 15.324 19.3838 15.324 19.3838C15.324 19.3838 15.324 19.3192 15.324 19.1945C15.2683 18.6223 15.0967 16.8026 14.9251 14.7506C14.9251 14.7506 14.9251 14.7204 14.9251 14.7075C14.9269 14.676 14.9269 14.6444 14.9251 14.6129C14.8522 13.7525 14.7836 12.8405 14.7278 11.9715C14.6249 10.4615 14.5605 9.06767 14.5734 8.20297C14.5734 7.88463 15.3154 7.91904 15.8216 7.85021C16.1947 7.79859 16.5765 7.76417 16.9067 7.74696C17.237 7.72976 17.4858 7.72115 17.6531 7.72115H17.8418C17.8418 7.72115 17.8847 7.22643 17.8847 7.22213L18.0005 6.00897C18.0568 6.02353 18.1142 6.0336 18.1721 6.03909C18.2782 6.05904 18.3858 6.07055 18.4938 6.0735C18.6353 6.0735 18.7683 6.0735 18.8927 6.0735L19.0771 6.05199H19.1843C19.3044 6.03048 19.4202 6.00467 19.5275 5.97456C19.6347 5.94444 19.669 5.93154 19.7376 5.91003C20.051 5.80932 20.3485 5.66447 20.6212 5.47983L20.6598 5.45402L20.7327 5.39809L20.7842 5.35938C20.7842 5.4196 20.7842 5.44541 20.7842 5.47123C20.7499 5.75516 20.7113 6.11652 20.6941 6.47358C20.6941 6.7231 20.6684 6.96831 20.6598 7.17911C20.6512 7.3899 20.5826 7.69534 20.7327 7.80289C20.7863 7.83308 20.8442 7.85484 20.9043 7.86742C21.1397 7.9047 21.378 7.92054 21.6163 7.91474C21.6892 7.91474 21.7622 7.91474 21.8351 7.91474C22.0179 7.90405 22.2012 7.90405 22.3841 7.91474C22.5119 7.91437 22.6384 7.93968 22.7563 7.98919C22.8742 8.03869 22.981 8.11139 23.0704 8.20297C23.1815 8.36438 23.2522 8.55034 23.2762 8.74502L23.3277 9.09778C23.4094 9.72561 23.418 10.3608 23.3535 10.9906Z" fill="#FFEDE5"/>
<path d="M20.7671 5.32935C20.7091 5.63721 20.5838 5.92837 20.4002 6.18187C20.2166 6.43538 19.9793 6.64494 19.7053 6.7955C19.4314 6.94605 19.1275 7.03385 18.8157 7.05259C18.5039 7.07132 18.1918 7.02053 17.9019 6.90386L17.9834 6.01336C18.4691 6.10734 18.9693 6.09487 19.4498 5.9768C19.9303 5.85874 20.3796 5.63788 20.7671 5.32935Z" fill="#E0855C"/>
<path d="M17.4131 2.49442C17.1643 2.75254 17.1429 3.329 17.1257 3.96569C17.0614 5.90157 17.6404 6.50385 18.6226 6.61139C19.6049 6.71894 20.6386 6.33607 20.8488 4.54645C20.956 3.64734 21.0675 2.82567 20.7415 2.43419C20.274 1.85773 18.168 1.70286 17.4131 2.49442Z" fill="#FFEDE5"/>
<path d="M20.7029 4.28405C20.7029 4.28405 21.0031 3.48389 21.4792 3.90978C21.9553 4.33568 21.2991 5.54453 20.5699 5.45419C20.5785 5.45419 20.4798 4.55938 20.7029 4.28405Z" fill="#FFEDE5"/>
<path d="M21.2689 4.27541C21.1563 4.31069 21.0555 4.37614 20.9773 4.46469C20.8887 4.53891 20.817 4.63133 20.7671 4.73572C20.7671 4.76583 20.7971 4.78734 20.8186 4.76583C20.879 4.70579 20.9363 4.64261 20.9901 4.57655C21.0293 4.61981 21.0777 4.65364 21.1317 4.67549C21.1746 4.67549 21.2089 4.63677 21.1917 4.60236C21.162 4.5568 21.1224 4.51856 21.0759 4.49051C21.156 4.43908 21.232 4.38155 21.3032 4.31843C21.3046 4.31325 21.3047 4.30783 21.3036 4.30261C21.3025 4.29738 21.3001 4.29248 21.2968 4.28831C21.2935 4.28413 21.2892 4.28079 21.2844 4.27855C21.2795 4.27631 21.2743 4.27524 21.2689 4.27541Z" fill="#E0855C"/>
<path d="M17.9707 3.92245C17.9707 3.92245 17.8034 3.98268 17.8291 3.68584C17.8548 3.38901 17.9707 3.45784 17.9707 3.45784C17.9707 3.45784 18.0865 3.45784 18.0693 3.69014C18.0521 3.92245 17.9707 3.92245 17.9707 3.92245Z" fill="#3B2645"/>
<path d="M19.6561 3.92245C19.6561 3.92245 19.4931 3.98268 19.5189 3.68584C19.5446 3.38901 19.6561 3.45784 19.6561 3.45784C19.6561 3.45784 19.7719 3.45784 19.7548 3.69014C19.7376 3.92245 19.6561 3.92245 19.6561 3.92245Z" fill="#3B2645"/>
<path d="M18.1507 3.02361C18.0833 2.98534 18.0056 2.96931 17.9286 2.9778C17.8517 2.9863 17.7793 3.01888 17.7218 3.07093C17.7189 3.07682 17.7175 3.08334 17.7178 3.0899C17.7181 3.09646 17.7201 3.10284 17.7235 3.10843C17.7269 3.11403 17.7317 3.11865 17.7374 3.12188C17.7431 3.1251 17.7496 3.12681 17.7561 3.12686C17.8162 3.12686 17.8676 3.09244 17.9277 3.08814C17.9906 3.08514 18.0534 3.09539 18.1121 3.11825C18.1679 3.13546 18.2065 3.04942 18.1507 3.02361Z" fill="#3B2645"/>
<path d="M19.9093 3.1699C19.8407 2.99782 19.5447 2.98491 19.416 3.08816C19.4098 3.09298 19.4047 3.09918 19.4013 3.10626C19.3978 3.11335 19.396 3.12114 19.396 3.12903C19.396 3.13692 19.3978 3.14471 19.4013 3.1518C19.4047 3.15888 19.4098 3.16508 19.416 3.1699C19.4931 3.17634 19.5706 3.17634 19.6476 3.1699C19.71 3.17997 19.7706 3.1988 19.8278 3.22582C19.8352 3.23666 19.8466 3.24411 19.8594 3.24653C19.8723 3.24895 19.8856 3.24615 19.8964 3.23873C19.9072 3.23131 19.9146 3.2199 19.9171 3.20699C19.9195 3.19408 19.9167 3.18074 19.9093 3.1699Z" fill="#3B2645"/>
<path d="M18.3093 5.30788C18.6712 5.35545 19.0389 5.29248 19.3645 5.1272C19.3158 5.24199 19.2437 5.3453 19.1528 5.4305C19.062 5.5157 18.9544 5.5809 18.8369 5.62192C18.4637 5.72517 18.3093 5.30788 18.3093 5.30788Z" fill="white"/>
<path d="M16.1432 8.19893C17.1297 8.89154 17.2198 10.2381 16.7394 11.3135C16.4134 12.032 15.8086 12.5353 15.4526 13.215C15.0816 13.8742 14.6509 14.4978 14.1658 15.0778C13.1021 16.4329 12.0898 17.6589 11.6995 18.1236C10.357 19.7325 7.53468 21.8577 6.51813 22.5976C6.28651 22.7697 6.14926 22.8643 6.14926 22.8643C6.14926 22.8643 5.1756 22.3524 5.43296 21.406C5.43296 21.406 9.29326 17.2933 9.86373 16.4544C10.4942 15.364 11.0668 14.2411 11.5794 13.0903C12.2371 11.814 12.9219 10.555 13.634 9.31314C13.9599 8.74097 14.376 8.02255 15.0923 7.89349C15.3814 7.86091 15.6732 7.92277 15.9244 8.06987C16.0003 8.1076 16.0734 8.15073 16.1432 8.19893Z" fill="#FFEDE5"/>
<path d="M5.43308 21.4102C5.53872 21.402 5.64484 21.402 5.75048 21.4102C5.75048 21.4102 6.67696 21.9264 6.51825 22.5975C6.51825 22.5975 6.4196 22.6878 6.26519 22.8255C6.11078 22.9632 5.9435 23.1266 5.7419 23.3331C5.54031 23.5396 5.08136 24.1935 4.88406 24.1376C4.83807 24.1206 4.79789 24.0907 4.76825 24.0516L4.36935 23.6214C4.14631 23.3719 3.77315 22.9503 4.05624 22.619C3.85035 22.7438 3.36996 23.0492 3.13405 22.9029L3.0354 22.7438C3.0354 22.7438 3.74312 22.2146 4.03479 21.9522C4.42826 21.6213 4.92003 21.4307 5.43308 21.4102Z" fill="#FFEDE5"/>
<path d="M17.3143 14.7896C17.3129 14.8125 17.3129 14.8355 17.3143 14.8585C17.3143 14.8585 17.353 14.8585 17.3444 14.8585L17.3143 14.7896Z" fill="#D6BED3"/>
<path d="M18.9055 28.732C18.5109 31.9026 18.0477 34.6601 18.0477 34.6601C18.112 35.4259 18.1421 36.2562 18.1421 37.1079C18.1421 38.7771 18.0305 40.5495 17.889 42.1111C17.7088 44.1029 17.4601 45.7979 17.3528 46.6497V46.7572C17.5115 52.4057 15.9074 53.1543 15.1568 51.9196C14.4061 50.6849 15.1568 47.0455 15.1568 47.0455C15.1592 47.0125 15.1592 46.9795 15.1568 46.9465C14.841 45.2563 14.6304 43.548 14.5262 41.8315C14.2689 37.6758 14.7107 34.8322 14.6592 34.316C13.7628 25.2818 15.0152 20.3002 15.0152 20.3002C15.2107 19.5763 15.5638 18.9049 16.0489 18.3342C16.9625 17.3447 18.0606 17.5942 18.7511 18.8031C18.8237 18.9271 18.8896 19.0549 18.9484 19.186C19.2298 19.8803 19.3894 20.6182 19.4202 21.3671C19.4889 23.2384 19.2272 26.125 18.9055 28.732Z" fill="#FFEDE5"/>
<path d="M23.3362 41.6121C23.2364 43.3643 23.0272 45.1086 22.7099 46.8346L22.6713 47.0454C22.6713 47.0454 23.4219 50.6978 22.6713 51.9196C21.9207 53.1413 20.3337 52.4272 20.4752 46.8346C20.4752 46.8088 20.4752 46.783 20.4752 46.7615C20.3551 45.9527 20.115 44.2018 19.9262 42.1283C19.7804 40.5538 19.6689 38.79 19.6689 37.1208C19.6689 36.2604 19.7032 35.4344 19.7675 34.6644C19.7675 34.6644 19.2914 31.9068 18.9097 28.7406C18.588 26.1293 18.3221 23.2427 18.4336 21.3885C18.4657 20.6394 18.6267 19.9015 18.9097 19.2074C18.9659 19.0723 19.0318 18.9415 19.107 18.816C19.9005 17.435 21.2216 17.3146 22.1952 18.8719C22.4741 19.3233 22.6933 19.8092 22.8472 20.3173C22.8472 20.3173 24.0996 25.2861 23.2032 34.3331C23.1389 34.8408 23.5635 37.5854 23.3362 41.6121Z" fill="#FFEDE5"/>
<path d="M5.33004 24.2021C5.41549 24.3013 5.52164 24.3805 5.64097 24.434C5.7603 24.4876 5.8899 24.5141 6.0206 24.5119C6.08047 24.4979 6.1369 24.4719 6.18647 24.4354C6.23603 24.3989 6.27771 24.3528 6.30898 24.2997C6.34026 24.2466 6.36047 24.1877 6.36841 24.1266C6.37635 24.0655 6.37184 24.0033 6.35516 23.944C6.30529 23.8131 6.2243 23.6965 6.11925 23.6041C5.47158 22.9588 4.80675 22.3136 4.13334 21.7156C4.02081 21.5884 3.87041 21.5009 3.70442 21.4661C3.55005 21.466 3.40066 21.5209 3.28284 21.6209C3.16502 21.721 3.08643 21.8597 3.06104 22.0124C3.06104 22.2877 3.29694 22.391 3.48996 22.5459C4.09903 23.0879 4.7081 23.6558 5.33004 24.2021Z" fill="#3B2645"/>
<path d="M5.23586 23.4405C5.26255 23.4129 5.28432 23.3809 5.3002 23.3459C5.31107 23.3015 5.3117 23.2551 5.30203 23.2104C5.29237 23.1657 5.27267 23.1237 5.24444 23.0878C5.08573 22.8254 4.75975 22.4038 4.43806 22.365C4.33185 22.3596 4.22608 22.3822 4.13127 22.4305C4.03645 22.4788 3.9559 22.5512 3.89762 22.6404C3.80136 22.7793 3.74015 22.9395 3.71923 23.1074C3.69831 23.2752 3.71831 23.4456 3.77752 23.604C3.87166 23.8889 4.06506 24.1303 4.32225 24.2837C4.45059 24.3383 4.59498 24.341 4.72527 24.2913C4.85555 24.2416 4.96165 24.1433 5.0214 24.017C5.08574 23.8578 5.06429 23.6642 5.16723 23.5309C5.18675 23.4983 5.20977 23.4681 5.23586 23.4405Z" fill="#FFEDE5"/>
<path d="M21.6507 8.19904C20.6599 8.89166 20.5698 10.2382 21.0545 11.3137C21.3762 12.0321 21.9809 12.5354 22.3412 13.2151C22.7152 13.8724 23.1458 14.4957 23.628 15.0779C24.6917 16.433 25.7083 17.6591 26.0943 18.1237C27.4411 19.7412 30.2634 21.8578 31.28 22.5977L31.6532 22.8644C31.6532 22.8644 32.6225 22.3525 32.3652 21.4061C32.3652 21.4061 28.5049 17.2934 27.9344 16.4545C27.3022 15.3651 26.7295 14.242 26.2187 13.0904C25.5582 11.7998 24.8762 10.5565 24.1599 9.31325C23.8339 8.74109 23.4221 8.02266 22.7015 7.8936C22.4125 7.86133 22.1207 7.92317 21.8694 8.06998C21.7934 8.10752 21.7203 8.15066 21.6507 8.19904Z" fill="#FFEDE5"/>
<path d="M32.3609 21.4101C32.2538 21.402 32.1463 21.402 32.0392 21.4101C32.0392 21.4101 31.1128 21.9263 31.2715 22.5975C31.2715 22.5975 31.3744 22.6878 31.5245 22.8255C31.6746 22.9631 31.8505 23.1266 32.0478 23.3331C32.2451 23.5396 32.7126 24.1935 32.9057 24.1376C32.951 24.1194 32.9909 24.0897 33.0215 24.0515L33.4161 23.6213C33.6434 23.3718 34.0123 22.9502 33.7335 22.619C33.9351 22.7437 34.4155 23.0492 34.6557 22.9029L34.7372 22.7437C34.7372 22.7437 34.0294 22.2146 33.7335 21.9522C33.3476 21.6254 32.8653 21.435 32.3609 21.4101Z" fill="#FFEDE5"/>
<path d="M32.4597 24.2022C32.3742 24.3015 32.2681 24.3806 32.1487 24.4342C32.0294 24.4877 31.8998 24.5142 31.7691 24.512C31.7085 24.499 31.6511 24.4737 31.6006 24.4376C31.55 24.4016 31.5074 24.3556 31.4753 24.3024C31.4431 24.2492 31.4222 24.19 31.4137 24.1284C31.4052 24.0668 31.4094 24.0041 31.426 23.9441C31.4795 23.819 31.5618 23.7085 31.6662 23.6215C32.3153 22.9762 32.9787 22.3467 33.6564 21.7329C33.7683 21.605 33.919 21.5173 34.0853 21.4834C34.2392 21.4835 34.388 21.5385 34.5051 21.6386C34.6222 21.7387 34.6999 21.8774 34.7244 22.0297C34.7244 22.3051 34.4928 22.4083 34.2955 22.5632C33.6907 23.088 33.0816 23.6559 32.4597 24.2022Z" fill="#3B2645"/>
<path d="M32.5581 23.4405C32.5288 23.4142 32.5055 23.3819 32.4895 23.3459C32.4804 23.3011 32.4811 23.2548 32.4915 23.2103C32.5018 23.1657 32.5216 23.1239 32.5495 23.0878C32.704 22.8254 33.0299 22.4038 33.3516 22.365C33.4578 22.3596 33.5636 22.3822 33.6584 22.4305C33.7532 22.4788 33.8338 22.5512 33.8921 22.6404C33.9872 22.7799 34.0468 22.9408 34.0655 23.1088C34.0842 23.2768 34.0615 23.4469 33.9993 23.604C33.908 23.8905 33.7139 24.1327 33.4546 24.2837C33.3262 24.3383 33.1818 24.341 33.0516 24.2913C32.9213 24.2416 32.8152 24.1433 32.7554 24.017C32.6954 23.8578 32.7168 23.6642 32.6096 23.5309L32.5581 23.4405Z" fill="#FFEDE5"/>
<path d="M23.4008 38.8543V39.2845C23.4008 39.5728 23.4008 39.8696 23.4008 40.175V40.5235C23.4008 40.8763 23.375 41.2419 23.3579 41.6162C22.2473 41.9235 21.1038 42.0954 19.9522 42.1281C19.905 41.6463 19.8107 40.3643 19.8064 40.2224C19.8064 39.9298 19.742 39.1039 19.7378 38.992C19.712 38.3639 19.6949 37.7358 19.6949 37.1206C19.6949 36.3205 19.7249 35.5375 19.7849 34.8105C19.7849 34.7589 19.7849 34.7116 19.7849 34.6642C19.7849 34.6169 19.3088 31.911 18.9271 28.7404C18.8842 29.076 18.8413 29.4115 18.7984 29.7342C18.4381 32.4616 18.0564 34.6642 18.0564 34.6642C18.1207 35.43 18.1507 36.2603 18.1507 37.112C18.1507 37.7616 18.1507 38.4026 18.1036 39.0823C18.1036 39.1942 18.0178 40.6311 18.0049 40.7687C17.9749 41.229 17.9363 41.6807 17.8977 42.1152C17.2972 42.0894 16.7053 42.0507 16.1176 41.9991C15.6544 41.9604 15.0711 41.9345 14.5049 41.8528C14.4792 41.4656 14.462 41.0957 14.4491 40.7343C14.4491 40.644 14.4491 40.5536 14.4491 40.4633C14.4491 40.0675 14.4491 39.6932 14.4491 39.3319V39.0479C14.4491 36.4409 14.7022 34.7245 14.6636 34.3158C13.7671 25.2817 15.0196 20.3 15.0196 20.3C15.2151 19.5761 15.5682 18.9047 16.0533 18.334C16.421 18.3911 16.7818 18.4862 17.1299 18.6179C17.6602 18.7569 18.2076 18.8192 18.7555 18.8029H19.1501C19.6262 18.8029 20.1023 18.747 20.5742 18.7341H20.8916C21.3439 18.7273 21.7955 18.7706 22.2384 18.8631C22.5031 19.3194 22.7078 19.8082 22.8474 20.3172C23.1939 21.9409 23.3977 23.5921 23.4565 25.2515C23.6018 28.2807 23.5172 31.3166 23.2034 34.333C23.152 34.7159 23.3793 36.3549 23.4008 38.8543Z" fill="#3B2645"/>
<path d="M6.20954 7.6866C6.20954 7.66078 6.15807 7.66078 6.15378 7.6866C5.93932 9.15357 6.06371 10.698 6.06371 12.1994C6.06371 13.7868 6.01224 15.3871 6.1066 16.9702C6.11065 16.9871 6.12026 17.0022 6.13388 17.0129C6.1475 17.0237 6.16433 17.0295 6.18166 17.0295C6.19899 17.0295 6.21582 17.0237 6.22944 17.0129C6.24305 17.0022 6.25266 16.9871 6.25672 16.9702C6.34679 15.3871 6.29532 13.7868 6.29532 12.1994C6.29532 10.7324 6.41971 9.16647 6.20954 7.6866Z" fill="#F7F8F8"/>
<path d="M8.08384 8.18566C8.07928 8.16454 8.06763 8.14562 8.05086 8.13205C8.03408 8.11848 8.01318 8.11108 7.99163 8.11108C7.97007 8.11108 7.94917 8.11848 7.93239 8.13205C7.91562 8.14562 7.90398 8.16454 7.89941 8.18566C7.89941 9.59671 7.80933 11.0336 7.89941 12.4403C7.89941 12.4643 7.9089 12.4872 7.92579 12.5042C7.94268 12.5211 7.96559 12.5306 7.98948 12.5306C8.01337 12.5306 8.03628 12.5211 8.05317 12.5042C8.07006 12.4872 8.07955 12.4643 8.07955 12.4403C8.17821 11.0336 8.09242 9.59671 8.08384 8.18566Z" fill="#F7F8F8"/>
<path d="M27.2608 22.9588C27.2573 22.9461 27.2497 22.9349 27.2393 22.9269C27.2288 22.9189 27.216 22.9146 27.2029 22.9146C27.1897 22.9146 27.1769 22.9189 27.1665 22.9269C27.156 22.9349 27.1484 22.9461 27.145 22.9588C27.0241 24.8061 26.9998 26.6585 27.072 28.5084C27.072 30.3582 27.072 32.2037 27.1407 34.0536C27.1443 34.0674 27.1524 34.0795 27.1636 34.0882C27.1749 34.0969 27.1887 34.1016 27.2029 34.1016C27.2171 34.1016 27.2308 34.0969 27.2421 34.0882C27.2533 34.0795 27.2614 34.0674 27.2651 34.0536C27.3251 32.2037 27.3251 30.3582 27.3337 28.5084C27.4038 26.6585 27.3794 24.8062 27.2608 22.9588Z" fill="#F7F8F8"/>
<path d="M30.568 12.1393C30.5546 10.9083 30.4745 9.67901 30.3278 8.45679C30.3278 8.38366 30.212 8.40517 30.2077 8.45679C30.1746 9.77863 30.2133 11.1013 30.3235 12.4189C30.3793 13.645 30.3664 14.9011 30.5294 16.1143C30.5294 16.2261 30.7181 16.1917 30.7224 16.0885C30.7825 14.7764 30.6452 13.4385 30.568 12.1393Z" fill="#F7F8F8"/>
<path d="M31.4257 12.8233C31.4227 12.8136 31.4167 12.8052 31.4086 12.7992C31.4005 12.7933 31.3907 12.79 31.3806 12.79C31.3706 12.79 31.3608 12.7933 31.3527 12.7992C31.3446 12.8052 31.3386 12.8136 31.3356 12.8233C31.222 14.5907 31.2134 16.3634 31.3099 18.1319C31.3072 18.1427 31.307 18.1539 31.3093 18.1648C31.3116 18.1756 31.3164 18.1858 31.3232 18.1945C31.33 18.2033 31.3388 18.2104 31.3487 18.2152C31.3587 18.2201 31.3696 18.2226 31.3806 18.2226C31.3917 18.2226 31.4026 18.2201 31.4126 18.2152C31.4225 18.2104 31.4313 18.2033 31.4381 18.1945C31.4449 18.1858 31.4496 18.1756 31.452 18.1648C31.4543 18.1539 31.4541 18.1427 31.4514 18.1319C31.5479 16.3634 31.5393 14.5907 31.4257 12.8233Z" fill="#F7F8F8"/>
<path d="M18.7769 29.7301C18.7834 29.3951 18.8265 29.0619 18.9055 28.7363C18.8626 29.0719 18.8197 29.4074 18.7769 29.7301Z" fill="#291B30"/>
<path d="M23.4437 25.2518C22.8646 21.7629 18.0821 21.5994 18.0821 21.5994C17.7862 20.1626 19.7163 19.7324 19.7163 19.7324L20.8444 18.7558C21.2967 18.7491 21.7484 18.7923 22.1912 18.8849C22.4706 19.332 22.6912 19.8135 22.8475 20.3174C23.1869 21.942 23.3863 23.5929 23.4437 25.2518Z" fill="#291B30"/>
<path d="M22.9158 20.6916C19.0555 22.5113 14.8606 20.8422 14.8606 20.8422C15.1651 19.9818 14.9378 15.5938 14.9164 14.7592C14.9164 14.7592 14.9164 14.7291 14.9164 14.7162C14.9181 14.6847 14.9181 14.6531 14.9164 14.6215C15.727 12.7373 15.8171 9.10643 15.8214 7.85886C16.186 7.80294 16.5677 7.77282 16.898 7.75562C17.0267 9.14945 17.4856 12.7244 18.7638 12.5695C20.042 12.4146 20.6511 9.23119 20.8741 7.83735C21.1093 7.87692 21.3478 7.89277 21.5861 7.88467C21.659 7.88467 21.7319 7.88467 21.8049 7.88467C21.6933 9.79044 22.7485 13.7956 22.7785 13.9074C22.7785 13.9375 22.7785 13.972 22.7785 14.0021C22.7785 14.1053 22.7485 14.2129 22.7356 14.329C22.7356 14.329 22.7356 14.3763 22.7356 14.4021C22.4654 16.8285 22.9158 20.6916 22.9158 20.6916Z" fill="url(#paint1_linear_414_5857)"/>
<defs>
<linearGradient id="paint0_linear_414_5857" x1="37.8311" y1="54.0665" x2="-12.5043" y2="49.6498" gradientUnits="userSpaceOnUse">
<stop stop-color="#92A3FD"/>
<stop offset="1" stop-color="#9DCEFF"/>
</linearGradient>
<linearGradient id="paint1_linear_414_5857" x1="22.9158" y1="21.5414" x2="12.1376" y2="21.054" gradientUnits="userSpaceOnUse">
<stop stop-color="#92A3FD"/>
<stop offset="1" stop-color="#9DCEFF"/>
</linearGradient>
</defs>
</svg>
